<svg xmlns="http://www.w3.org/2000/svg" xmlns:xlink="http://www.w3.org/1999/xlink" viewBox="0 0 51 40" width="51" height="40">
	<path d="M14.354 5.98v-.673c0-.66.535-1.267 1.195-1.363.423-.062.846-.124 1.27-.188.66-.1 1.194.35 1.194 1.013v.672c0 .66-.534 1.277-1.194 1.377l-1.27.186c-.66.096-1.196-.365-1.196-1.026zm13.63-3.93S28.613.806 29.632.64c.115-.02.234-.04.354-.058.665-.11 1.33-.215 2-.32.513-.082 1.027-.16 1.542-.238V9.61c.176-.025.35-.052.526-.078.22-.033.39-.088.508-.165.118-.08.232-.205.338-.38.746-1.22 1.493-2.436 2.24-3.647.13-.214.282-.38.462-.494.18-.115.407-.19.68-.223 1.083-.134 2.164-.255 3.246-.36-1.02 1.504-2.042 3.023-3.063 4.554-.144.216-.303.41-.474.585-.172.174-.357.335-.556.48.345.216.64.52.893.918 1.112 1.752 2.224 3.517 3.336 5.3-1.067.102-2.134.22-3.2.35-.266.033-.496.02-.69-.043-.196-.064-.353-.198-.475-.404-.747-1.3-1.494-2.596-2.24-3.886-.107-.176-.218-.284-.332-.324-.114-.04-.286-.044-.514-.01l-.686.103v5.243c-1.18.177-2.36.364-3.542.558V2.855l-.353.058c-1.018.168-1.645-.864-1.645-.864zm.206 15.142c-.404.328-.817.605-1.24.825-.423.22-.847.394-1.274.524-.427.13-.843.23-1.246.298-.723.122-1.415.102-2.074-.062-.66-.164-1.237-.466-1.737-.905-.5-.44-.896-1.018-1.19-1.733-.292-.714-.44-1.56-.44-2.536 0-.85.128-1.67.383-2.453.256-.784.633-1.488 1.132-2.114.5-.627 1.116-1.157 1.85-1.593.737-.435 1.587-.735 2.556-.9.93-.156 1.745-.147 2.446.033.7.177 1.332.508 1.897.985l-.938 1.402c-.106.147-.21.267-.308.36-.1.092-.24.154-.422.186-.175.028-.334.014-.475-.046l-.474-.2c-.175-.073-.382-.133-.617-.177-.237-.043-.53-.036-.88.024-.435.073-.81.217-1.127.432-.316.212-.577.485-.782.815-.206.332-.357.723-.457 1.17-.1.446-.148.94-.148 1.48 0 1.136.22 1.972.657 2.508.437.535 1.042.738 1.81.607.412-.07.738-.177.978-.32.24-.143.443-.292.61-.446.17-.154.324-.296.464-.427.142-.13.318-.213.532-.25.28-.046.495.02.64.203l1.03 1.096c-.367.48-.752.886-1.156 1.216zM14.413 8.39c1.18-.163 2.362-.338 3.543-.52v11.85c-1.18.18-2.363.357-3.543.52V8.39zm-4.073 6.692c1.113 1.766 2.226 3.518 3.338 5.258-1.067.142-2.133.275-3.2.394-.267.03-.497.013-.69-.055-.195-.068-.354-.207-.476-.415-.746-1.32-1.492-2.652-2.24-3.99-.106-.18-.217-.295-.33-.343-.115-.047-.287-.064-.515-.046-.228.017-.457.033-.685.048v5.244c-1.182.078-2.362.134-3.543.165V6.51l-.353.01C.627 6.54 0 5.397 0 5.397s.626-1.133 1.647-1.153c.113-.002.232-.005.352-.01.665-.016 1.33-.042 1.997-.074.515-.024 1.03-.054 1.545-.088v9.587l.525-.037c.22-.016.39-.06.508-.13s.23-.188.337-.356c.747-1.172 1.494-2.353 2.24-3.54.13-.21.283-.372.463-.482.18-.11.406-.18.68-.21 1.082-.12 2.164-.252 3.245-.396-1.02 1.54-2.04 3.07-3.062 4.59-.145.216-.303.408-.475.58-.172.17-.356.326-.554.468.342.224.64.534.89.934zM50.233 29.7c-.457.344-.972.603-1.543.787-.572.182-1.162.286-1.77.31-.566.024-1.062-.03-1.493-.17-.43-.138-.792-.347-1.086-.627-.292-.28-.514-.628-.667-1.043-.153-.415-.228-.885-.228-1.41V20.02v-1.603c.623-1.01 1.248-2.013 1.872-3.01.556-.034 1.113-.062 1.67-.086v3.44c.386-.015.813-.03 1.198-.04 1.02-.027 1.645 1.114 1.645 1.113 0 0-.626 1.135-1.645 1.16-.385.012-.812.026-1.198.042v6.058c0 .274.066.498.2.672.133.174.326.256.577.248.13-.004.24-.02.326-.05.087-.03.163-.06.23-.097.063-.035.124-.068.18-.095.058-.028.125-.04.2-.043.108-.003.193.02.26.07.063.047.13.124.2.23l1.073 1.672zm-8.01-8.067c.174.535.263 1.127.263 1.775v7.53c-1.18.11-2.363.235-3.543.377v-7.53c0-.58-.135-1.015-.4-1.306-.267-.293-.66-.404-1.177-.337-.39.05-.755.184-1.098.4-.343.214-.67.485-.982.81V31.8c-1.18.168-2.362.348-3.543.536v-11.85c.73-.117 1.463-.23 2.194-.34.22-.033.406-.01.555.067.148.078.252.21.314.4l.205.654c.23-.245.466-.476.71-.694.244-.217.505-.407.782-.57.278-.166.58-.305.904-.418.323-.116.675-.196 1.056-.245.648-.08 1.222-.034 1.72.136.5.17.92.437 1.263.803.343.365.602.817.777 1.353zm-15.12-.384c1.182-.2 2.363-.398 3.544-.59v11.852c-1.18.19-2.362.388-3.544.588V21.25zm-5.083 9.4c-.385.64-.984 1.028-1.8 1.16-.838.138-1.45-.055-1.84-.57-.388-.512-.583-1.356-.583-2.53 0-1.174.195-2.076.583-2.708.39-.632 1.002-1.014 1.84-1.15.816-.133 1.415.052 1.8.56.385.506.578 1.345.578 2.52 0 1.174-.193 2.08-.578 2.72zm3.794-5.817c-.293-.7-.705-1.27-1.235-1.704-.53-.437-1.164-.735-1.903-.89-.738-.16-1.558-.164-2.457-.018-.906.147-1.73.42-2.474.816-.743.397-1.382.897-1.92 1.5-.537.605-.952 1.302-1.245 2.092-.293.792-.44 1.655-.44 2.592 0 .944.147 1.777.44 2.493.294.718.71 1.302 1.246 1.754.538.45 1.177.763 1.92.934.743.17 1.568.18 2.474.035.9-.147 1.72-.427 2.457-.836.74-.41 1.373-.926 1.902-1.545.53-.62.94-1.333 1.234-2.142.294-.807.44-1.684.44-2.628 0-.937-.146-1.756-.44-2.457zm-16.33 6.553c-.115.468-.272.856-.474 1.16-.202.308-.44.537-.715.693-.274.154-.575.246-.902.274-.343.03-.67-.004-.983-.1-.313-.094-.602-.28-.868-.56v-5.03c.152-.19.304-.364.456-.516.153-.152.32-.28.498-.385.178-.105.374-.19.582-.257.21-.066.444-.112.703-.134.283-.025.538.01.767.1.23.094.425.263.59.51.163.245.29.577.382.994.09.417.135.938.135 1.563 0 .654-.057 1.216-.17 1.686zm3.503-4.633c-.217-.722-.517-1.32-.898-1.79-.382-.47-.835-.81-1.36-1.027-.526-.213-1.097-.29-1.715-.228-.41.04-.79.118-1.136.232-.348.115-.672.258-.973.43-.3.174-.582.372-.846.597-.26.225-.507.47-.737.735l-.262-.85c-.06-.195-.164-.337-.313-.428-.15-.09-.334-.13-.554-.12-.065.005-.13.008-.196.01-.666.033-1.332.06-1.998.076l-.353.01C.627 24.42 0 25.552 0 25.552s.626 1.14 1.647 1.118c.113 0 .232-.003.352-.006V40c1.18-.03 2.36-.087 3.542-.164v-4.548c.34.275.724.482 1.142.626.42.143.937.186 1.555.13.753-.07 1.44-.298 2.06-.678.622-.38 1.155-.878 1.6-1.488.446-.61.793-1.31 1.04-2.098.248-.785.372-1.624.372-2.515 0-.954-.108-1.79-.325-2.512z" fill="#D9252E" fill-rule="evenodd"></path>
</svg>