<svg xmlns="http://www.w3.org/2000/svg" xmlns:xlink="http://www.w3.org/1999/xlink" viewBox="0 0 20 24" width="51" height="61.2">
	<g class="link_svg--hover" fill-rule="nonzero" fill="#333">
		<path d="M1.1 1.1V19H19V1.1H1.1zm9.2 12.3H8.9c-.1 0-.1 0-.2-.1l-1.5-2.9-.9 1.1v1.7c0 .1 0 .1-.1.1H4.9c-.1 0-.1 0-.1-.1V6.7c0-.1 0-.1.1-.1h1.3c.1 0 .1 0 .1.1v3l2.3-3c0-.1.1-.1.2-.1h1.5c.1 0 .1.1 0 .1L8.1 9.3l2.3 4c0 .1 0 .1-.1.1zm5.2-6.7V11c0 1.7-.9 2.6-2.5 2.6-.8 0-1.6-.4-1.9-.9v-.1l.9-.7h.1c.2.2.5.4.8.4.6 0 1-.4 1-1.2V6.7c0-.1 0-.1.1-.1h1.3c.1 0 .2 0 .2.1z" fill="#fff"></path>
	</g>

	<g class="link_svg--hover" fill-rule="nonzero" fill="#333">
		<path d="M4.8 6.7c0-.1 0-.1.1-.1h1.3c.1 0 .1 0 .1.1v3l2.3-3c0-.1.1-.1.2-.1h1.5c.1 0 .1.1 0 .1L8.2 9.3l2.3 4c0 .1 0 .1-.1.1H8.9c-.1 0-.1 0-.1-.1l-1.5-2.9-.9 1.1v1.7c0 .1 0 .1-.1.1H4.9c-.1 0-.1 0-.1-.1V6.7zM11.1 12.5l.9-.7h.1c.2.2.5.4.8.4.6 0 1-.4 1-1.2V6.7c0-.1 0-.1.1-.1h1.3c.1 0 .1 0 .1.1V11c0 1.7-.9 2.6-2.5 2.6-.8 0-1.6-.4-1.9-.9 0-.1 0-.1.1-.2z"></path>
	</g>

	<g class="link_svg--hover" fill-rule="nonzero" fill="#333">
		<path fill="#d8d8d8" d="M1.1 20H19v2.9H1.1z"></path>
	</g>

	<g class="link_svg--hover" fill-rule="nonzero" fill="#333">
		<path class="st2" d="M4.8 6.7c0-.1 0-.1.1-.1h1.3c.1 0 .1 0 .1.1v3l2.3-3c0-.1.1-.1.2-.1h1.5c.1 0 .1.1 0 .1L8.2 9.3l2.3 4c0 .1 0 .1-.1.1H8.9c-.1 0-.1 0-.1-.1l-1.5-2.9-.9 1.1v1.7c0 .1 0 .1-.1.1H4.9c-.1 0-.1 0-.1-.1V6.7zM11.1 12.5l.9-.7h.1c.2.2.5.4.8.4.6 0 1-.4 1-1.2V6.7c0-.1 0-.1.1-.1h1.3c.1 0 .1 0 .1.1V11c0 1.7-.9 2.6-2.5 2.6-.8 0-1.6-.4-1.9-.9 0-.1 0-.1.1-.2z"></path>
	</g>

	<g class="link_svg--hover" fill-rule="nonzero" fill="#333">
		<path class="st2" d="M0 0v24h20V0H0zm19 22.9H1.1V20H19v2.9zM1.1 19V1.1H19V19H1.1z"></path>
	</g>
</svg>