<svg xmlns="http://www.w3.org/2000/svg" xmlns:xlink="http://www.w3.org/1999/xlink" viewBox="0 0 35 25" width="51" height="36.429">
	<path class="link_svg--hover" d="M12.884 16.997l-1.95-2.866c1.204-.457 2.023-1.396 2.023-2.89v-.047c0-.89-.29-1.614-.82-2.12-.602-.626-1.517-.963-2.722-.963H5.537c-.265 0-.386.145-.386.385v8.574c0 .264.122.41.387.41h1.276c.266 0 .386-.146.386-.41V14.49h1.613l1.83 2.722c.12.193.29.265.483.265h1.518c.337 0 .433-.194.24-.483zM17.34 1.28V24.31c0 .27-.218.486-.487.486H1.28c-.268 0-.486-.217-.486-.486V1.28c0-.268.218-.486.487-.486h15.573c.27 0 .487.218.487.487zm13.354 14.416l-.747-.77c-.17-.17-.386-.193-.578 0-.627.48-1.23.82-2.17.82-1.613 0-2.722-1.326-2.722-2.94v-.048c0-1.59 1.157-2.89 2.723-2.89.796 0 1.47.29 2.097.795.216.17.41.17.578-.048l.77-.915c.17-.193.17-.41-.023-.554-.82-.723-1.83-1.204-3.397-1.204-2.867 0-4.89 2.19-4.89 4.864v.024c0 2.698 2.047 4.817 4.794 4.817 1.685 0 2.72-.554 3.612-1.445.145-.144.12-.313-.048-.506zM34.86 1.28V24.31c0 .27-.22.486-.488.486H18.8c-.27 0-.487-.217-.487-.486V1.28c0-.268.218-.486.487-.486h15.572c.27 0 .487.218.487.487zM10.91 11.314v.024c0 .77-.555 1.325-1.567 1.325H7.247V9.965h2.048c1.012 0 1.614.457 1.614 1.348z" fill="#333" fill-rule="evenodd"></path>
</svg>