<svg viewBox="0 0 600 504" version="1.1" xmlns="http://www.w3.org/2000/svg" xmlns:xlink="http://www.w3.org/1999/xlink"><defs><path id="a" d="M0 0h625v529H0z"/></defs><g transform="translate(-25 -25)" stroke="none" stroke-width="1" fill="none" fill-rule="evenodd"><mask id="b" fill="#fff"><use xlink:href="#a"/></mask><g fill="#1C5379" fill-rule="nonzero" mask="url(#b)"><g stroke-width="1"><path d="M195.747 135.78c-1.717.996-3.864.996-5.724 0l-32.484-18.625c-2.72-1.564-3.72-5.118-2.004-7.82 1.574-2.7 5.152-3.696 7.87-1.99l32.34 18.483c2.72 1.564 3.72 5.12 2.004 7.82-.43.995-1.288 1.706-2.003 2.133zM211.488 113.174c-2.72 1.564-6.297.71-8.014-2.133L184.87 78.91c-1.573-2.703-.714-6.257 2.148-7.963 2.72-1.564 6.296-.71 8.013 2.132l18.747 32.132c1.43 2.7.43 6.256-2.29 7.962zM239.106 110.9c-.86.426-1.86.852-2.862.71-3.148 0-5.724-2.56-5.724-5.687v-37.25c0-3.13 2.576-5.688 5.724-5.688s5.724 2.56 5.724 5.687v37.25c0 2.134-1.145 3.982-2.862 4.977z"/></g><path d="M241.89 231.76c-6.445 3.714-11.315 9.713-14.037 16.14l-40.965-70.695c-8.02-13.996-25.926-18.71-39.963-10.71-5.73 3.283-10.026 8.282-12.318 13.995l-1.002-1.857c-8.022-13.996-25.926-18.71-39.963-10.71-14.037 7.997-18.764 25.85-10.743 39.845l1.002 1.856c-6.16-.857-12.605.286-18.334 3.57-14.037 8-18.764 25.85-10.743 39.847l3.15 5.285c-6.158-.857-12.603.286-18.333 3.57-14.037 7.998-18.763 25.85-10.742 39.846l97.543 168.525c15.326 26.422 42.684 43.417 73.48 45.416 1.86 1.858 6.16 7 9.453 16.282 4.01 11.71 7.305 32.99-.716 66.84-.716 3.14 1.29 6.14 4.297 6.997 1.432.427 2.864.142 4.154-.573 1.29-.714 2.436-2 2.722-3.57 16.76-71.837-12.318-94.688-14.18-96.116v-.142c0-.142-.287-.142-.43-.142-.286-.143-.43-.286-.573-.286-.144 0-.287-.143-.43-.143-.144 0-.43-.143-.573-.286-.144 0-.287-.14-.573 0-.144 0-.287-.14-.573 0-27.644-1.284-52.423-16.28-66.174-39.987l-97.4-168.24c-4.87-8.425-2.005-19.28 6.446-24.135 8.307-4.713 18.907-2.142 23.92 6l42.684 73.835c1.576 2.713 5.157 3.713 8.02 2.142 2.723-1.57 3.725-5.14 2.15-7.998l-42.398-73.265c-.143-.143-14.753-25.42-14.753-25.42-4.87-8.427-2.005-19.28 6.446-24.137 8.45-4.856 19.337-2 24.207 6.427l57.15 98.686c1.577 2.714 5.158 3.713 8.022 2.142 2.72-1.57 3.723-5.14 2.148-7.997l-69.9-120.538c-4.87-8.426-2.004-19.28 6.447-24.136 8.45-4.857 19.336-2 24.206 6.426l69.9 120.68c1.576 2.714 5.157 3.713 8.02 2.142 2.866-1.57 3.725-5.14 2.15-7.997l-19.05-32.562-38.244-65.98c-4.87-8.427-2.006-19.28 6.445-24.137 8.452-4.855 19.338-2 24.208 6.428l80.355 138.675c1.575 2.713 5.156 3.713 8.02 2.142 2.723-1.57 3.725-5.14 2.15-7.998l-.43-.714c0-.143-.143-.285-.287-.428l-27.93-48.272c-4.01-7.855.143-19.71 9.023-24.708 9.023-5.14 21.77-2.713 26.355 5.285l59.442 102.828c18.477 31.848 12.318 73.265-14.467 98.4h-.143c-2.292 2.143-2.578 5.856-.43 8.14.287.287 34.09 37.705 18.62 103.686-.715 3.142 1.29 6.142 4.298 6.998 1.432.43 2.865.143 4.154-.57 1.288-.715 2.434-2 2.72-3.57 13.894-59.413-8.88-97.545-17.904-109.827 27.5-29.135 33.23-73.98 13.034-108.97l-59.442-102.828c-8.02-13.425-27.645-17.852-42.398-9.426zM467.24 105.8l-38.252-66.187c-8.022-14.01-25.93-18.726-39.97-10.72-5.73 3.287-10.03 8.29-12.32 14.008l-1.004-1.857c-8.023-14.01-25.93-18.727-39.97-10.72-14.04 8.004-18.77 25.873-10.746 39.882l1.003 1.858c-6.16-.858-12.606.286-18.337 3.574-14.04 8.005-18.768 25.874-10.745 39.883l3.152 5.29c-6.16-.86-12.607.285-18.338 3.573-14.04 8.005-18.768 25.874-10.745 39.883l97.564 168.68c10.89 18.87 43.41 74.907 95.845 50.463 5.587 15.01 24.068 49.317 80.228 66.185 1.576.43 3.152.286 4.442-.572 1.29-.715 2.292-1.858 2.578-3.288 1.003-3.002-.716-6.29-3.868-7.147-64.183-19.442-74.068-62.756-74.354-64.614 0-.143-.143-.143-.143-.43-.143-.142-.143-.428-.143-.57 0-.144-.143-.286-.143-.572 0-.143-.142-.143-.142-.286s0-.143-.144-.143c-.143-.143-.143-.286-.43-.43 0-.142-.143-.285-.286-.285l-.287-.286c-.285-.143-.285-.286-.428-.286-.144 0-.287-.286-.43-.286-.143 0-.43-.143-.573-.286-.144-.143-.288-.143-.574-.285-.143 0-.287-.144-.43-.144-.143 0-.287-.143-.573 0h-.573c-.143 0-.43.143-.573 0-.287 0-.43 0-.573.143h-.144c-.143 0-.143.14-.43.14-.143.144-.43.144-.572.144-.144 0-.287.143-.573.286-.144 0-.144.143-.287.143-31.948 18.44-58.595 5.146-86.39-42.885l-25.213-43.743c-8.596-17.868 16.618-34.022 45.415-50.46 4.584-2.717 9.025-5.004 12.75-7.435 2.722-1.715 3.582-5.146 1.863-7.862-1.72-2.716-5.158-3.574-7.88-1.858-3.582 2.144-7.88 4.717-12.32 7.29-18.052 10.293-42.55 24.302-50.573 41.742L281.14 159.12c-4.872-8.434-2.007-19.3 6.446-24.16 8.31-4.716 18.91-2.143 23.925 6.005l42.694 73.905c1.576 2.716 5.158 3.717 8.023 2.145 2.722-1.573 3.725-5.147 2.15-8.006l-57.164-98.78c-4.87-8.433-2.006-19.298 6.447-24.158 8.453-4.86 19.34-2 24.212 6.433l57.163 98.78c1.576 2.715 5.157 3.715 8.023 2.143 2.722-1.573 3.724-5.146 2.148-8.005L335.293 64.63c-4.87-8.434-2.006-19.3 6.447-24.16 8.453-4.86 19.34-2 24.212 6.434l69.913 120.793c1.576 2.716 5.158 3.716 8.023 2.144 2.722-1.57 3.725-5.145 2.15-8.004l-57.164-98.78c-4.87-8.433-2.005-19.297 6.447-24.157 8.454-4.862 19.342-2.003 24.213 6.43l38.538 66.616c-10.17 9.578-13.61 25.302-7.02 36.738l28.225 48.746c1.575 2.716 5.157 3.717 8.022 2.145 2.722-1.573 3.725-5.147 2.15-8.006l-28.224-48.747c-4.584-7.862-.286-20.3 8.596-25.445 9.025-5.146 21.775-2.716 26.36 5.29l59.455 102.924c15.33 26.588 14.47 61.325-2.15 86.628-10.887 10.006-23.638 14.295-35.96 12.58-15.9-2.288-30.657-14.582-42.835-35.453-1.576-2.716-5.157-3.716-8.023-2.144-2.722 1.573-3.725 5.146-2.15 8.005 17.48 30.306 37.393 39.17 51.004 41.17 11.605 1.716 23.21-.715 33.954-6.86 1.72-1.002 3.295-2.003 5.015-3.29 5.156 13.295 21.488 37.168 72.204 52.606 1.576.43 3.152.286 4.44-.57 1.29-.716 2.294-1.86 2.58-3.29 1.003-3-.716-6.29-3.868-7.147-55.3-16.725-64.612-43.6-66.188-50.318 18.194-28.734 18.91-67.617 1.72-97.208L505.92 117.378c-7.593-12.58-24.642-17.297-38.682-11.58z"/></g></g></svg>