<svg xmlns="http://www.w3.org/2000/svg" viewBox="0 0 570 260"><path fill="#2C3E50" d="M548.3 81H309.2c-5.8 0-10.6-4.7-10.6-10.6 0-5.8 4.7-10.6 10.6-10.6H387c11.7 0 21.2-9.5 21.2-21.2s-9.5-21.2-21.2-21.2H41.1c-11.7 0-21.2 9.5-21.2 21.2s9.5 21.2 21.2 21.2h109.5c5.8 0 10.6 4.7 10.6 10.6 0 5.8-4.7 10.6-10.6 10.6h-44.3c-11.5 0-21.3 8.9-21.7 20.4-.4 12 9.2 21.9 21.1 21.9h78.7c5.8 0 10.6 4.7 10.6 10.6 0 5.8-4.7 10.6-10.6 10.6H21.8c-11.5 0-21.3 8.9-21.7 20.4-.4 12 9.2 21.9 21.1 21.9h104.9c5.8 0 10.6 4.7 10.6 10.6 0 5.8-4.7 10.6-10.6 10.6h-36c-11.7 0-21.2 9.5-21.2 21.2s9.5 21.2 21.2 21.2h323.4c11.7 0 21.2-9.5 21.2-21.2s-9.5-21.2-21.2-21.2h-55.1c-5.8 0-10.6-4.7-10.6-10.6 0-5.8 4.7-10.6 10.6-10.6H505c11.5 0 21.3-8.9 21.7-20.4.4-12-9.2-21.9-21.1-21.9H410c-5.8 0-10.6-4.7-10.6-10.6 0-5.8 4.7-10.6 10.6-10.6h138.8c11.9 0 21.6-9.9 21.1-21.9-.3-11.5-10.1-20.4-21.6-20.4z"/><linearGradient id="a" x1="313.608" x2="524.291" y1="57.013" y2="57.013" gradientUnits="userSpaceOnUse"><stop offset="0" stop-color="#A6D3EB"/><stop offset="1" stop-color="#FFF" stop-opacity="0"/></linearGradient><path fill="url(#a)" d="M310.8 47.3v19.6L524.6 103c3.3.6 6.4-2 6.4-5.3V16.5c0-3.4-3-5.9-6.4-5.3L310.8 47.3z"/><linearGradient id="b" x1="106.272" x2="316.955" y1="513.686" y2="513.686" gradientUnits="userSpaceOnUse" gradientTransform="rotate(180 194.234 285.35)"><stop offset="0" stop-color="#A6D3EB"/><stop offset="1" stop-color="#FFF" stop-opacity="0"/></linearGradient><path fill="url(#b)" d="M285 66.7V47.1l-213.8-36c-3.3-.6-6.4 2-6.4 5.3v81.2c0 3.4 3 5.9 6.4 5.3L285 66.7z"/><path fill="#FFF" d="M321.2 108.1h-72.4l-11 120.1h94.4"/><path d="M332.2 231.7h-94.3c-1 0-1.9-.4-2.6-1.1-.7-.7-1-1.7-.9-2.7l10.9-120.1c.2-1.8 1.7-3.2 3.5-3.2h72.4c1.8 0 3.3 1.4 3.5 3.2l10.9 120.1c.1 1-.2 2-.9 2.7-.6.7-1.6 1.1-2.5 1.1zm-90.5-7h86.6L318 111.6h-66l-10.3 113.1z"/><path fill="#DB4553" d="M322.8 108.1h-75.6c-6.2 0-11.2-5-11.2-11.2v-.4h98v.4c0 6.1-5 11.2-11.2 11.2z"/><path d="M322.8 111.6h-75.6c-8.1 0-14.7-6.6-14.7-14.7v-.4c0-1.9 1.6-3.5 3.5-3.5h98c1.9 0 3.5 1.6 3.5 3.5v.4c0 8.1-6.6 14.7-14.7 14.7zM240.2 100c1.2 2.7 3.9 4.5 7 4.5h75.6c3.1 0 5.8-1.9 7-4.5h-89.6z"/><path fill="#AA3543" d="M285.1 108.1h-38.2c-6 0-10.9-4.9-10.9-10.9v-.6h49"/><path d="M285.1 111.6h-38.2c-7.9 0-14.4-6.5-14.4-14.4v-.6c0-1.9 1.6-3.5 3.5-3.5h49c1.9 0 3.5 1.6 3.5 3.5S287 100 285 100h-44.9c1.1 2.7 3.8 4.5 6.8 4.5h38.2c1.9 0 3.5 1.6 3.5 3.5s-1.6 3.6-3.5 3.6z"/><path fill="#DB4553" d="M332 220.4h-94c-5.6 0-10.2 4.6-10.2 10.2v2.2h114.4v-2.2c0-5.6-4.6-10.2-10.2-10.2z"/><path d="M342.2 236.3H227.8c-1.9 0-3.5-1.6-3.5-3.5v-2.2c0-7.5 6.1-13.7 13.7-13.7h94c7.5 0 13.7 6.1 13.7 13.7v2.2c0 1.9-1.6 3.5-3.5 3.5zm-110.8-7h107.1c-.6-3.1-3.3-5.4-6.6-5.4h-94c-3.1 0-5.9 2.3-6.5 5.4z"/><path fill="#FFF" d="M253.7 70.2h62.5v26.3h-62.5z"/><path d="M316.3 99.9h-62.5c-1.9 0-3.5-1.6-3.5-3.5V70.2c0-1.9 1.6-3.5 3.5-3.5h62.5c1.9 0 3.5 1.6 3.5 3.5v26.3c0 1.9-1.6 3.4-3.5 3.4zm-59.1-7h55.5V73.7h-55.5v19.2z"/><path fill="#D3D3D3" d="M285 96.4h-31.3V70.2H285"/><path d="M285 99.9h-31.3c-1.9 0-3.5-1.6-3.5-3.5V70.2c0-1.9 1.6-3.5 3.5-3.5H285c1.9 0 3.5 1.6 3.5 3.5s-1.6 3.5-3.5 3.5h-27.8V93H285c1.9 0 3.5 1.6 3.5 3.5s-1.6 3.4-3.5 3.4z"/><path fill="#A6D3EB" d="M262.7 43.9h44.7v26.3h-44.7z"/><path d="M307.3 73.7h-44.7c-1.9 0-3.5-1.6-3.5-3.5V43.9c0-1.9 1.6-3.5 3.5-3.5h44.7c1.9 0 3.5 1.6 3.5 3.5v26.3c0 1.9-1.5 3.5-3.5 3.5zm-41.1-7h37.7V47.4h-37.7v19.3z"/><path fill="#DB4553" d="M256 43.9l17.9-14.7c6.4-5.3 15.7-5.3 22.1 0l18 14.7h-58z"/><path d="M314 47.4h-58c-1.5 0-2.8-.9-3.3-2.3s-.1-2.9 1.1-3.9l17.9-14.7c7.7-6.3 18.9-6.3 26.6 0l17.9 14.7c1.1.9 1.6 2.5 1.1 3.9-.5 1.3-1.9 2.3-3.3 2.3zm-48.2-7h38.4l-10.4-8.5c-5.1-4.2-12.5-4.2-17.7 0l-10.3 8.5z"/><path fill="#AA3543" d="M285 25.2c-3.9 0-7.8 1.3-11.1 4L256 43.9h29"/><path d="M285 47.4h-29c-1.5 0-2.8-.9-3.3-2.3s-.1-2.9 1.1-3.9l17.9-14.7c3.7-3.1 8.4-4.8 13.3-4.8 1.9 0 3.5 1.6 3.5 3.5s-1.6 3.5-3.5 3.5c-3.2 0-6.3 1.1-8.8 3.2l-10.4 8.5H285c1.9 0 3.5 1.6 3.5 3.5s-1.6 3.5-3.5 3.5zM241.7 100c-1.9 0-3.5-1.6-3.5-3.5V80.9c0-1.9 1.6-3.5 3.5-3.5s3.5 1.6 3.5 3.5v15.6c0 2-1.6 3.5-3.5 3.5zM263.3 100c-1.9 0-3.5-1.6-3.5-3.5V80.9c0-1.9 1.6-3.5 3.5-3.5s3.5 1.6 3.5 3.5v15.6c0 2-1.5 3.5-3.5 3.5zM285 100c-1.9 0-3.5-1.6-3.5-3.5V80.9c0-1.9 1.6-3.5 3.5-3.5s3.5 1.6 3.5 3.5v15.6c0 2-1.6 3.5-3.5 3.5zM306.7 100c-1.9 0-3.5-1.6-3.5-3.5V80.9c0-1.9 1.6-3.5 3.5-3.5s3.5 1.6 3.5 3.5v15.6c0 2-1.6 3.5-3.5 3.5zM328.3 100c-1.9 0-3.5-1.6-3.5-3.5V80.9c0-1.9 1.6-3.5 3.5-3.5s3.5 1.6 3.5 3.5v15.6c0 2-1.6 3.5-3.5 3.5z"/><g><path d="M328.3 87.7h-86.6c-1.9 0-3.5-1.6-3.5-3.5s1.6-3.5 3.5-3.5h86.6c1.9 0 3.5 1.6 3.5 3.5s-1.6 3.5-3.5 3.5z"/></g><g><path fill="#729EB2" d="M285 70.2h-22.3V43.9H285"/><path d="M285 73.7h-22.3c-1.9 0-3.5-1.6-3.5-3.5V43.9c0-1.9 1.6-3.5 3.5-3.5H285c1.9 0 3.5 1.6 3.5 3.5s-1.6 3.5-3.5 3.5h-18.8v19.3H285c1.9 0 3.5 1.6 3.5 3.5s-1.6 3.5-3.5 3.5z"/></g><g><path d="M285 27.9c-1.9 0-3.5-1.6-3.5-3.5V9.7c0-1.9 1.6-3.5 3.5-3.5s3.5 1.6 3.5 3.5v14.7c0 2-1.6 3.5-3.5 3.5z"/></g><g><path fill="#D3D3D3" d="M285 108.1h-36.2l-11 112.3H285"/><path d="M285 223.9h-47.2c-1 0-1.9-.4-2.6-1.1-.7-.7-1-1.7-.9-2.7l11-112.3c.2-1.8 1.7-3.2 3.5-3.2H285c1.9 0 3.5 1.6 3.5 3.5s-1.6 3.5-3.5 3.5h-33L241.7 217H285c1.9 0 3.5 1.6 3.5 3.5s-1.6 3.4-3.5 3.4z"/></g><g><path fill="#1E2F3D" d="M292.6 151.9h-15.2v-15.6c0-4.1 3.3-7.4 7.4-7.4h.5c4.1 0 7.4 3.3 7.4 7.4v15.6z"/><path d="M292.6 155.4h-15.2c-1.9 0-3.5-1.6-3.5-3.5v-15.6c0-6 4.9-10.9 10.9-10.9h.5c6 0 10.9 4.9 10.9 10.9v15.6c-.1 2-1.7 3.5-3.6 3.5zm-11.7-7h8.2v-12.1c0-2.1-1.7-3.9-3.9-3.9h-.5c-2.1 0-3.9 1.7-3.9 3.9v12.1z"/></g><g><path fill="#1E2F3D" d="M292.6 195.8h-15.2v-15.6c0-4.1 3.3-7.4 7.4-7.4h.5c4.1 0 7.4 3.3 7.4 7.4v15.6z"/><path d="M292.6 199.3h-15.2c-1.9 0-3.5-1.6-3.5-3.5v-15.6c0-6 4.9-10.9 10.9-10.9h.5c6 0 10.9 4.9 10.9 10.9v15.6c-.1 2-1.7 3.5-3.6 3.5zm-11.7-7h8.2v-12.1c0-2.1-1.7-3.9-3.9-3.9h-.5c-2.1 0-3.9 1.7-3.9 3.9v12.1z"/></g><g><path fill="#AA3543" d="M285.1 220.4h-47.4c-5.5 0-9.9 4.4-9.9 9.9v2.5h57.3"/><path d="M285.1 236.3h-57.3c-1.9 0-3.5-1.6-3.5-3.5v-2.5c0-7.4 6-13.4 13.4-13.4h47.4c1.9 0 3.5 1.6 3.5 3.5s-1.6 3.5-3.5 3.5h-47.4c-3.2 0-5.8 2.3-6.3 5.4h53.7c1.9 0 3.5 1.6 3.5 3.5s-1.6 3.5-3.5 3.5z"/></g><g><path fill="#2F2933" d="M476 244.6h-16c-8.1-4.4-19.6-11.3-49.4-11.3-36.6 0-43.3-25.1-72.5-25.1-17.8 0-32.1 12.2-53.4 12.2-21.3 0-47.8-9.9-84.8-9.9-18.8 0-44.4 24.8-75.2 34.1H92.1c-1.9 0-3.5 1.6-3.5 3.5s1.6 3.5 3.5 3.5H476c1.9 0 3.5-1.6 3.5-3.5s-1.6-3.5-3.5-3.5z"/></g><g><path d="M479.2 251.6h-8.9c-4.9 0-8.6-2.1-13-4.4-8-4.4-19-10.4-46.8-10.4-20.3 0-32.2-7.5-42.6-14.2-9.2-5.9-17.2-10.9-29.9-10.9-7.9 0-15.3 2.7-23.1 5.5-9.1 3.3-18.6 6.7-30.3 6.7-9.5 0-19.7-1.9-31.5-4-15.3-2.8-32.6-5.9-53.3-5.9-9 0-20.4 6.7-33.6 14.4-18.6 10.9-39.6 23.2-63.8 23.2H92.1c-1.9 0-3.5-1.6-3.5-3.5s1.6-3.5 3.5-3.5h10.5c22.3 0 42.4-11.8 60.2-22.3 14.1-8.2 26.2-15.4 37.1-15.4 21.4 0 39 3.2 54.6 6 11.5 2.1 21.4 3.9 30.3 3.9 10.5 0 19.4-3.2 27.9-6.3 8.4-3 16.3-5.9 25.4-5.9 14.8 0 24.4 6.1 33.7 12 10.1 6.4 20.5 13.1 38.8 13.1 29.6 0 42 6.8 50.2 11.3 3.9 2.2 6.5 3.6 9.6 3.6h8.9c1.9 0 3.5 1.6 3.5 3.5s-1.6 3.5-3.6 3.5z"/></g></svg>