<svg xmlns="http://www.w3.org/2000/svg" viewBox="0 0 570 260"><path fill="#01A2A6" d="M566.5 101.8l-33.8 90.8c-1.5 4-5.8 6.2-9.8 5.2-.3-.1-.7-.2-1-.3l-233.2-86.9c-4.3-1.6-6.6-6.5-4.9-10.8L317.6 9c1.1-2.9 3.6-4.9 6.4-5.4 1.4-.2 2.9-.1 4.4.4l233.2 87c4.3 1.6 6.5 6.4 4.9 10.8z"/><path d="M524.8 201.6c-.9 0-1.9-.1-2.8-.3-.4-.1-.9-.2-1.4-.4L287.4 114c-6.2-2.3-9.3-9.2-7-15.3l33.8-90.8c1.5-4 5-6.9 9.1-7.6 2.1-.4 4.2-.2 6.2.6l233.2 86.9c3 1.1 5.3 3.3 6.7 6.2 1.3 2.9 1.4 6.1.3 9.1l-3.3-1.2 3.3 1.2-33.7 90.7c-1.8 4.7-6.3 7.8-11.2 7.8zM325.4 7c-.3 0-.6 0-.8.1-1.7.3-3.2 1.5-3.8 3.1L287 101.1c-.9 2.5.3 5.4 2.9 6.3l233.2 86.9c.2.1.4.1.5.2 2.5.6 4.9-.7 5.8-3l33.8-90.8c.9-2.5-.3-5.4-2.9-6.3l-233.2-87c-.5-.3-1.1-.4-1.7-.4z"/><ellipse cx="341.8" cy="70.3" fill="#29D9C2" transform="rotate(-69.568 341.762 70.29)" rx="43.1" ry="30.1"/><path d="M334.4 115.5c-3 0-6-.5-8.9-1.6-17.4-6.5-24.2-31.3-15.2-55.4 9-24.1 30.4-38.4 47.8-31.9s24.2 31.3 15.2 55.4c-4.3 11.5-11.4 21.1-20.2 27.1-6.2 4.3-12.6 6.4-18.7 6.4zM349.1 32c-12.3 0-25.8 11.6-32.3 29-7.6 20.5-2.6 41.3 11.1 46.4 6.4 2.4 13.9 1 21.1-4 7.6-5.2 13.8-13.7 17.6-23.8 7.6-20.5 2.6-41.3-11.1-46.4-2-.8-4.2-1.2-6.4-1.2z"/><g><path fill="#01A2A6" d="M350.5 66c-1.4-.1-1.8-1-1.6-2.3.4-2.8-.3-5-3.3-6-2.4-.8-4 .5-4.1 1.9-.8 5.5 18.1 10.8 12.9 25.6-.5 1.6-4.8 10.1-15.8 8.8l-1.5 4.1c-.5 1.3-1.4 1.8-2.7 1.3l-7.5-2.8c-1.3-.4-1.7-1.4-1.3-2.7l1.6-4.4c-6.7-5-5.8-12-4.7-16.2.4-1.2 1.2-1.7 2.4-1.5l7.7 1c1.3.2 1.8.9 1.5 2.3-.8 3.2-.5 5.4 3.1 6.6 3.8 1.3 5.4-.6 5.6-2 .8-6-17.7-9.9-12.5-24.7.5-1.6 4-10.2 13.9-9.4l1.5-4.1c.5-1.3 1.5-1.7 2.7-1.3l7.5 2.8c1.3.5 1.8 1.4 1.3 2.7l-1.6 4.3c6.6 4.9 6 11.7 4.9 15.6-.3 1.2-1.1 1.7-2.3 1.6l-7.7-1.2z"/><path d="M335.4 103c-.7 0-1.5-.1-2.2-.4l-7.4-2.8c-1.5-.5-2.7-1.5-3.3-2.8-.7-1.3-.7-2.9-.1-4.4l.8-2.1c-3.5-3.5-6.4-9.2-4-18.2v-.1c.8-2.7 3.3-4.3 6.1-4l3.4.4c-2.5-3.7-3.9-8.6-1.6-15 .4-1.1 4-11.1 14.8-11.8l.7-1.8c.7-2 2-2.9 2.9-3.3.9-.4 2.4-.7 4.3 0l7.5 2.8c1.9.7 2.9 2 3.3 2.9.4.9.8 2.4 0 4.4l-.7 2c4.5 4.5 6 10.7 4.1 17.5-.7 2.8-3.1 4.5-6.1 4.1l-2.4-.3c2.9 4.1 4.8 9.3 2.3 16.2-1 3-6.1 11.2-16.7 11.2l-.6 1.7c-1 2.4-2.9 3.8-5.1 3.8zm-6-9.3l4.9 1.8 2-5.4 2.7.3c9.2 1.1 12-6.3 12-6.4 2.4-6.8-1.4-10.7-7-15.5-3.3-2.9-6.5-5.6-6-9.4.2-1.7 1.2-3.2 2.7-4.2 1.7-1.1 3.9-1.3 6.1-.6 3.9 1.3 5.9 4.3 5.8 8.4l4.9.6c.9-4.5-.4-8.1-3.9-10.7l-2.1-1.6 2-5.4-4.9-1.8-2 5.3-2.6-.2c-7.4-.6-9.9 5.7-10.3 7-2.3 6.6 1.1 10 6.5 14.5 3.3 2.7 6.7 5.5 6.1 9.6-.2 1.8-1.3 3.4-2.9 4.4-1.4.9-3.8 1.7-7.4.4-4.4-1.5-6.3-4.6-5.7-9l-4.7-.6c-1.1 5.1.1 8.7 3.7 11.4l2.1 1.6-2 5.5zm7.9-16.1s.2.3 1.1.6c.1 0 .2.1.3.1-.4-.4-.9-.9-1.4-1.3-.1.5 0 .6 0 .6z"/></g><g><ellipse cx="508.1" cy="132.3" fill="#29D9C2" transform="rotate(-69.568 508.094 132.26)" rx="43.1" ry="30.1"/><path d="M500.6 177.5c-3 0-5.9-.5-8.7-1.6-17.4-6.5-24.2-31.3-15.2-55.4 4.3-11.5 11.4-21.1 20.2-27.1 9.1-6.3 18.9-8 27.6-4.8 17.4 6.5 24.2 31.3 15.2 55.4-7.6 20.2-23.9 33.5-39.1 33.5zM515.5 94c-4.8 0-9.8 1.7-14.7 5.1-7.6 5.2-13.8 13.7-17.6 23.8-7.6 20.5-2.6 41.3 11.1 46.4 13.7 5.1 31.1-7.4 38.8-27.8 7.6-20.5 2.6-41.3-11.1-46.4-2.1-.7-4.3-1.1-6.5-1.1z"/><g><path fill="#01A2A6" d="M516.9 128c-1.4-.1-1.8-1-1.6-2.3.4-2.8-.3-5-3.3-6-2.4-.8-4 .5-4.1 1.9-.8 5.5 18.1 10.8 12.9 25.6-.5 1.6-4.8 10.1-15.8 8.8l-1.5 4.1c-.5 1.3-1.4 1.8-2.7 1.3l-7.5-2.8c-1.3-.4-1.7-1.4-1.3-2.7l1.6-4.4c-6.7-5-5.8-12-4.7-16.2.4-1.2 1.2-1.7 2.4-1.5l7.7 1c1.3.2 1.8.9 1.5 2.3-.8 3.2-.5 5.4 3.1 6.6 3.8 1.3 5.4-.6 5.6-2 .8-6-17.7-9.9-12.5-24.7.5-1.6 4-10.2 13.9-9.4l1.5-4.1c.5-1.3 1.5-1.7 2.7-1.3l7.5 2.8c1.3.5 1.8 1.4 1.3 2.7L522 112c6.6 4.9 6 11.7 4.9 15.6-.3 1.2-1.1 1.7-2.3 1.6l-7.7-1.2z"/><path d="M501.7 164.9c-.7 0-1.5-.1-2.2-.4l-7.4-2.8c-1.5-.5-2.7-1.5-3.3-2.8-.7-1.3-.7-2.9-.1-4.4l.8-2.1c-3.5-3.5-6.3-9.2-4-18.2v-.1c.8-2.7 3.3-4.3 6.1-4l3.4.4c-2.5-3.7-3.9-8.6-1.6-15 .4-1.1 4-11.1 14.8-11.8l.7-1.8c1.2-3.1 4.1-4.5 7.2-3.3l7.5 2.8c3.2 1.2 4.5 4.1 3.3 7.2l-.7 2c4.5 4.5 6 10.7 4.1 17.5-.7 2.8-3.1 4.5-6.1 4.1l-2.4-.3c2.9 4.1 4.8 9.3 2.3 16.2-1 3-6.1 11.2-16.7 11.2l-.6 1.7c-1 2.6-2.9 3.9-5.1 3.9zm-6-9.2l4.9 1.8 2-5.4 2.7.3c9.2 1.1 12-6.3 12-6.4 2.4-6.8-1.4-10.7-7-15.5-3.3-2.9-6.5-5.6-6-9.4.2-1.7 1.2-3.2 2.7-4.2 1.7-1.1 3.9-1.3 6.1-.6 3.9 1.3 5.9 4.3 5.8 8.4l4.9.6c.9-4.5-.4-8.1-3.9-10.7l-2.1-1.6 2-5.4-4.9-1.8-2 5.3-2.6-.2c-7.4-.6-9.9 5.7-10.3 7-2.3 6.6 1.1 10 6.5 14.5 3.3 2.7 6.7 5.5 6.1 9.6-.2 1.8-1.3 3.4-2.9 4.4-1.4.9-3.8 1.7-7.4.4-4.4-1.5-6.3-4.6-5.7-9l-4.7-.6c-1.1 5.1.1 8.7 3.7 11.4l2.1 1.6-2 5.5zm7.9-16.1s.2.3 1.1.6c.1 0 .2.1.3.1-.4-.4-.9-.9-1.4-1.3-.1.4 0 .6 0 .6z"/></g></g><g><path fill="#29D9C2" d="M441.8 151.9l-62.7-23.4c-4.8-1.8-7.2-7.1-5.4-11.9l22.4-60.2c1.8-4.8 7.1-7.2 11.9-5.4l62.7 23.4c4.8 1.8 7.2 7.1 5.4 11.9l-22.4 60.2c-1.8 4.7-7.1 7.2-11.9 5.4z"/><path d="M445 156c-1.5 0-3-.3-4.5-.8l-62.7-23.4c-3.2-1.2-5.7-3.5-7.1-6.6-1.4-3.1-1.5-6.6-.4-9.7l22.4-60.2c1.2-3.2 3.5-5.7 6.6-7.1 3.1-1.4 6.6-1.5 9.7-.4l62.7 23.4c6.6 2.5 9.9 9.8 7.5 16.4L457 147.7c-1.2 3.2-3.5 5.7-6.6 7.1-1.8.8-3.6 1.2-5.4 1.2zm-2-7.4c1.4.5 3 .5 4.4-.2 1.4-.6 2.5-1.8 3-3.2L472.8 85c.5-1.4.5-3-.2-4.4-.6-1.4-1.8-2.5-3.2-3l-62.7-23.4c-1.4-.5-3-.5-4.4.2-1.4.6-2.5 1.8-3 3.2l-22.4 60.2c-1.1 3 .4 6.3 3.4 7.4l62.7 23.4z"/></g><g><path fill="#01A2A6" d="M266.8 115.6l13.9 95.9c.6 4.3-2.1 8.2-6.1 9.3-.3.1-.7.2-1 .2L27.3 256.8c-4.6.7-8.9-2.5-9.5-7.1L3.9 153.8c-.4-3.1.8-6 3.1-7.8 1.1-.9 2.5-1.5 4-1.7l246.3-35.8c4.6-.7 8.8 2.5 9.5 7.1z"/><path d="M26.1 260.4c-5.8 0-10.9-4.3-11.8-10.2L.4 154.3c-.6-4.2 1.1-8.4 4.4-11 1.6-1.3 3.6-2.2 5.7-2.5L256.8 105c6.5-.9 12.5 3.6 13.5 10.1l13.9 95.9c.9 6-2.9 11.6-8.7 13.2-.4.1-.9.2-1.4.3L27.8 260.2c-.5.1-1.1.2-1.7.2zm232.4-148.5c-.2 0-.5 0-.7.1L11.5 147.7c-.9.1-1.7.5-2.3 1-1.4 1.1-2.1 2.8-1.8 4.5l13.9 95.9c.4 2.7 2.9 4.5 5.6 4.1l246.3-35.8c.2 0 .4-.1.5-.1 2.4-.7 4-3 3.6-5.4L263.4 116c-.4-2.4-2.5-4.1-4.9-4.1z"/><ellipse cx="54.6" cy="195.9" fill="#29D9C2" transform="rotate(-8.27 54.526 195.824)" rx="30.1" ry="43.1"/><path d="M57.7 242.3c-17.1 0-33-17.7-36.4-41.5-1.8-12.1-.1-24 4.7-33.5 5-9.9 12.8-16.1 21.9-17.4 9.1-1.3 18.3 2.4 25.9 10.5 7.3 7.8 12.3 18.7 14 30.8 3.7 25.4-8.2 48.3-26.6 50.9-1.1.1-2.3.2-3.5.2zm-6.3-85.8c-.9 0-1.7.1-2.6.2-6.8 1-12.7 5.8-16.6 13.7-4.1 8.2-5.6 18.7-4 29.4 3 20.3 15.8 35.5 29.4 35.6.9 0 1.7-.1 2.6-.2 14.5-2.1 23.8-21.4 20.6-43-1.6-10.7-5.9-20.3-12.2-27-5.1-5.7-11.2-8.7-17.2-8.7z"/><g><path fill="#01A2A6" d="M60.2 187.9c-1.3.5-2.1 0-2.5-1.3-1-2.7-2.7-4.2-5.8-3.7-2.5.4-3.3 2.3-2.7 3.6 1.9 5.2 21.1.7 23.6 16.3.3 1.7.6 11.2-9.6 15.3l.6 4.4c.2 1.4-.4 2.2-1.8 2.4l-7.9 1.1c-1.3.3-2.2-.4-2.4-1.7l-.7-4.6c-8.3-1.2-10.9-7.8-11.9-12-.2-1.2.3-2.1 1.4-2.5l7.2-2.8c1.2-.5 2-.1 2.4 1.3.8 3.2 2.2 4.9 5.9 4.3 3.9-.6 4.5-3.1 4-4.5-2.2-5.6-20.3-.2-22.8-15.7-.3-1.7-1.4-10.9 7.7-14.9l-.6-4.4c-.2-1.4.5-2.2 1.8-2.4L54 165c1.4-.2 2.2.4 2.4 1.8l.7 4.5c8.1 1.1 10.8 7.4 11.8 11.3.3 1.2-.1 2-1.3 2.5l-7.4 2.8z"/><path d="M53.5 229.6c-1.1 0-2.2-.3-3.1-.9-1.2-.9-2-2.2-2.2-3.8l-.3-2.2c-4.8-1.4-10-5-12.2-14.1v-.1c-.6-2.8.8-5.3 3.5-6.4l3.2-1.3c-4-2.1-7.5-5.7-8.6-12.3-.2-1.2-1.9-11.7 7.3-17.4l-.3-1.9c-.3-2.1.4-3.5 1-4.3.6-.8 1.8-1.8 3.8-2.1l7.9-1.1c2.1-.3 3.5.4 4.3 1 .8.6 1.8 1.8 2.1 3.8l.3 2.1c6.1 1.8 10.4 6.5 12.1 13.4.7 2.8-.6 5.4-3.4 6.6l-2.3.9c4.5 2.1 8.7 5.9 9.8 13.1.6 3.1 0 12.7-9.3 17.9l.3 1.8c.3 2.1-.4 3.4-1 4.3-.6.8-1.8 1.8-3.8 2.1l-7.8 1.1c-.5-.3-.9-.2-1.3-.2zM42.8 208c1.5 5 4.3 7.6 8.7 8.2l2.6.4.8 5.8 5.2-.8-.8-5.7 2.6-1c8.6-3.4 7.5-11.3 7.5-11.4-1.1-7.1-6.4-8.7-13.6-10.2-4.3-.9-8.4-1.8-9.8-5.4-.7-1.6-.5-3.4.3-5 1-1.8 2.8-3 5.1-3.4 4-.7 7.3 1 9.1 4.6l4.6-1.8c-1.4-4.4-4.2-6.9-8.5-7.5l-2.6-.4-.8-5.8-5.2.8.8 5.6-2.4 1.1c-6.8 3-5.9 9.7-5.7 11.1 1.1 6.9 5.7 8.3 12.6 9.6 4.2.8 8.5 1.6 10 5.5.7 1.6.5 3.6-.4 5.3-.8 1.4-2.5 3.3-6.3 3.9-4.6.8-7.7-1-9.3-5.1l-4.5 1.6zm11.3-3.5s.3.1 1.3 0c.1 0 .2 0 .3-.1-.5-.2-1.2-.3-1.9-.5.2.5.3.6.3.6z"/></g><g><ellipse cx="230.2" cy="170.4" fill="#29D9C2" transform="rotate(-8.27 230.133 170.327)" rx="30.1" ry="43.1"/><path d="M233.3 216.7c-7.9 0-15.7-3.7-22.3-10.8-7.3-7.8-12.3-18.7-14-30.8-3.7-25.4 8.2-48.3 26.6-50.9 9.1-1.3 18.3 2.4 25.9 10.5 7.3 7.8 12.3 18.7 14 30.8 1.8 12.1.1 24-4.7 33.5-5 9.9-12.8 16.1-21.9 17.4-1.2.3-2.4.3-3.6.3zm-6.2-85.7c-.9 0-1.7.1-2.6.2-14.5 2.1-23.8 21.4-20.6 43 1.6 10.7 5.9 20.3 12.2 27 6 6.4 13 9.3 19.8 8.4 6.8-1 12.7-5.8 16.6-13.7 4.1-8.2 5.6-18.7 4-29.4-1.6-10.7-5.9-20.3-12.2-27-5.2-5.5-11.2-8.5-17.2-8.5z"/><g><path fill="#01A2A6" d="M235.8 162.4c-1.3.5-2.1 0-2.5-1.3-1-2.7-2.7-4.2-5.8-3.7-2.5.4-3.3 2.3-2.7 3.6 1.9 5.2 21.1.7 23.6 16.3.3 1.7.6 11.2-9.6 15.3l.6 4.4c.2 1.4-.4 2.2-1.8 2.4l-7.9 1.1c-1.3.3-2.2-.4-2.4-1.7l-.7-4.6c-8.3-1.2-10.9-7.8-11.9-12-.2-1.2.3-2.1 1.4-2.5l7.2-2.8c1.2-.5 2-.1 2.4 1.3.8 3.2 2.2 4.9 5.9 4.3 3.9-.6 4.5-3.1 4-4.5-2.2-5.6-20.3-.2-22.8-15.7-.3-1.7-1.4-10.9 7.7-14.9l-.6-4.4c-.2-1.4.5-2.2 1.8-2.4l7.9-1.1c1.4-.2 2.2.4 2.4 1.8l.7 4.5c8.1 1.1 10.8 7.4 11.8 11.3.3 1.2-.1 2-1.3 2.5l-7.4 2.8z"/><path d="M229.2 204c-1.1 0-2.2-.3-3.1-1-1.2-.9-2-2.2-2.2-3.8l-.3-2.2c-4.8-1.4-10-5-12.2-14.1v-.1c-.6-2.8.8-5.3 3.5-6.4l3.2-1.3c-4-2.1-7.5-5.7-8.6-12.3-.2-1.2-1.9-11.7 7.3-17.4l-.3-1.9c-.5-3.3 1.5-5.9 4.8-6.4l7.9-1.1c3.3-.5 5.9 1.4 6.4 4.8l.3 2.1c6.1 1.8 10.4 6.5 12.1 13.4.7 2.8-.6 5.4-3.4 6.5l-2.3.9c4.5 2.1 8.7 5.9 9.8 13.1.6 3.1 0 12.7-9.3 17.9l.3 1.8c.5 3.3-1.4 5.9-4.8 6.4l-7.8 1.1h-1.3zm-10.8-21.5c1.5 5 4.3 7.6 8.7 8.2l2.6.4.8 5.8 5.2-.8-.8-5.7 2.6-1c8.6-3.4 7.5-11.3 7.5-11.4-1.1-7.1-6.4-8.7-13.6-10.2-4.3-.9-8.4-1.8-9.8-5.4-.6-1.6-.5-3.4.3-5 1-1.8 2.8-3 5.1-3.4 4-.7 7.3 1 9.1 4.6l4.6-1.8c-1.4-4.4-4.2-6.9-8.5-7.5l-2.6-.4-.8-5.8-5.2.8.8 5.6-2.4 1.1c-6.8 3-5.9 9.7-5.7 11.1 1.1 6.9 5.7 8.3 12.6 9.6 4.2.8 8.5 1.6 10 5.5.7 1.6.5 3.6-.4 5.3-.8 1.4-2.5 3.3-6.3 3.9-4.6.8-7.7-1-9.3-5.1l-4.5 1.6zm11.4-3.5s.3.1 1.3 0c.1 0 .2 0 .3-.1-.5-.2-1.2-.3-1.9-.5.2.5.3.6.3.6z"/></g></g><g><path fill="#29D9C2" d="M181.5 219.4l-66.2 9.6c-5 .7-9.7-2.8-10.5-7.8l-9.2-63.6c-.7-5 2.8-9.7 7.8-10.5l66.2-9.6c5-.7 9.7 2.8 10.5 7.8l9.2 63.6c.7 5.1-2.8 9.8-7.8 10.5z"/><path d="M113.9 232.6c-6.2 0-11.7-4.6-12.6-10.9l-9.2-63.6c-.5-3.4.4-6.7 2.4-9.4s5-4.5 8.4-5l66.2-9.6c6.9-1 13.4 3.8 14.4 10.8l9.2 63.6c.5 3.4-.4 6.7-2.4 9.5s-5 4.5-8.4 5l-66.2 9.6h-1.8zm57-91.7c-.3 0-.6 0-.8.1l-66.2 9.6c-1.5.2-2.9 1-3.8 2.2-.9 1.2-1.3 2.7-1.1 4.3l9.2 63.6c.5 3.1 3.4 5.3 6.5 4.9L181 216c1.5-.2 2.9-1 3.8-2.2.9-1.2 1.3-2.7 1.1-4.3l-9.2-63.6c-.5-2.9-3-5-5.8-5z"/></g></g><g><path fill="#01A2A6" d="M470.6 62.3v135.4c0 6-4.5 10.9-10.3 11.6-.5.1-.9.1-1.4.1H111.2c-6.5 0-11.7-5.3-11.7-11.7V62.3c0-4.3 2.3-8.1 5.8-10.1 1.7-1 3.8-1.6 5.9-1.6h347.6c6.5 0 11.8 5.2 11.8 11.7z"/><path d="M458.8 212.9H111.2c-8.4 0-15.2-6.8-15.2-15.2V62.3c0-5.4 2.9-10.4 7.6-13.2 2.3-1.4 5-2.1 7.7-2.1h347.6c8.4 0 15.2 6.8 15.2 15.2v135.4c0 7.7-5.8 14.2-13.4 15.1-.6.2-1.2.2-1.9.2zM111.2 54.1c-1.5 0-2.9.4-4.1 1.1-2.5 1.5-4.1 4.2-4.1 7.1v135.4c0 4.5 3.7 8.2 8.2 8.2h347.6c.3 0 .6 0 1-.1 4.2-.5 7.3-4 7.3-8.2V62.3c0-4.5-3.7-8.2-8.2-8.2H111.2z"/><ellipse cx="161" cy="130.7" fill="#29D9C2" rx="42" ry="60.2"/><path d="M161 194.4c-25.1 0-45.5-28.6-45.5-63.7S135.9 67 161 67s45.5 28.6 45.5 63.7-20.4 63.7-45.5 63.7zM161 74c-21.3 0-38.5 25.4-38.5 56.7s17.3 56.7 38.5 56.7c21.3 0 38.5-25.4 38.5-56.7S182.3 74 161 74z"/><g><path fill="#01A2A6" d="M170.4 120.8c-1.9.5-2.9-.4-3.2-2.3-.8-3.9-2.9-6.4-7.2-6.3-3.6.1-5 2.6-4.5 4.5 1.6 7.5 29 5.3 29.3 27.2.1 2.4-1.4 15.6-16.4 19.2v6.2c0 2-1 3-3 3h-11.1c-1.9.1-3-1-3-2.9v-6.6c-11.2-3.3-13.5-12.9-14.1-19-.1-1.7.8-2.8 2.4-3.2l10.5-2.5c1.8-.4 2.8.3 3.1 2.3.5 4.6 2 7.2 7.3 7.1 5.6-.1 6.9-3.4 6.4-5.4-1.9-8.2-28-4.4-28.4-26.3-.1-2.4.2-15.3 13.6-19.1v-6.2c0-2 1.1-3 3-3h11.1c2 0 3 1 3 3v6.4c11 3.2 13.5 12.4 14 18 .2 1.8-.6 2.8-2.3 3.2l-10.5 2.7z"/><path d="M154.1 175.8c-2.1 0-3.5-.9-4.3-1.6-.9-.8-1.9-2.3-1.9-4.7v-4.1c-6.2-2.5-12.8-8.3-14.1-21.1v-.1c-.2-3.3 1.8-6 5-6.8l7.8-1.8c-6-3.4-11.4-8.9-11.6-19.4-.1-1.6-.2-16.2 13.6-21.6V91c0-3.9 2.6-6.5 6.5-6.5h11.1c3.9 0 6.5 2.5 6.5 6.5v3.9c10.9 4.4 13.5 14.3 14 20.2.4 3.4-1.5 6.1-5 6.9l-6.6 1.6c6.7 3.6 13 9.4 13.1 20.7.2 4.3-2.5 17.1-16.4 21.8v3.5c0 3.9-2.5 6.5-6.5 6.5h-11c0-.3-.1-.3-.2-.3zm10.8-6.3zm-10.1-.7h10.1v-8.4l2.7-.6c13.6-3.2 13.7-15.5 13.7-15.6-.2-11.7-9.5-15.1-17.7-18.1-5.6-2.1-10.5-3.9-11.5-8.4-.5-1.9-.1-4 1.2-5.6 1.5-1.9 3.8-3 6.6-3.1h.3c5.3 0 9 3 10.3 8.4l9.2-2.2c-.6-5.4-3.1-12.1-11.4-14.5l-2.5-.7v-8.5h-10.1v8.3l-2.6.7c-11 3.1-11.1 13.5-11.1 15.5.2 11.4 8.5 14.3 16.5 17 5.5 1.9 10.7 3.7 11.8 8.6.5 2 0 4.3-1.3 6.1-1.2 1.6-3.6 3.5-8.4 3.6h-.3c-8.4 0-10-6.1-10.4-9.3l-9.1 2.1c.9 8.4 4.7 13.5 11.5 15.5l2.5.7v8.5zm1.8-29.2c0 .1 0 .2.1.4v.1c.4 3.7 1.1 4.1 3.8 4 2 0 2.7-.6 2.9-.8.1-.2.1-.3.1-.3-.2-1.1-4.1-2.4-6.9-3.4zm2.4-23.5c.4.7 2.5 1.6 4.7 2.4-.6-2.3-1.8-2.8-3.6-2.7-.7 0-1 .2-1.1.3zm11.8 2.2zm9-2.7z"/></g><g><ellipse cx="409" cy="130.7" fill="#29D9C2" rx="42" ry="60.2"/><path d="M409 194.4c-25.1 0-45.5-28.6-45.5-63.7S383.9 67 409 67s45.5 28.6 45.5 63.7-20.4 63.7-45.5 63.7zM409 74c-21.3 0-38.5 25.4-38.5 56.7s17.3 56.7 38.5 56.7 38.5-25.4 38.5-56.7S430.2 74 409 74z"/><g><path fill="#01A2A6" d="M418.4 120.8c-1.9.5-2.9-.4-3.2-2.3-.8-3.9-2.9-6.4-7.2-6.3-3.6.1-5 2.6-4.5 4.5 1.6 7.5 29 5.3 29.3 27.2.1 2.4-1.4 15.6-16.4 19.2v6.2c0 2-1 3-3 3h-11.1c-1.9.1-3-1-3-2.9v-6.6c-11.2-3.3-13.5-12.9-14.1-19-.1-1.7.8-2.8 2.4-3.2l10.5-2.5c1.8-.4 2.8.3 3.1 2.3.5 4.6 2 7.2 7.3 7.1 5.6-.1 6.9-3.4 6.4-5.4-1.9-8.2-28-4.4-28.4-26.3-.1-2.4.2-15.3 13.6-19.1v-6.2c0-2 1.1-3 3-3h11.1c2 0 3 1 3 3v6.4c11 3.2 13.5 12.4 14 18 .2 1.8-.6 2.8-2.3 3.2l-10.5 2.7z"/><path d="M402 175.8c-2.1 0-3.5-.9-4.3-1.6-.9-.8-1.9-2.3-1.9-4.7v-4.1c-6.2-2.5-12.8-8.3-14.1-21.1v-.1c-.2-3.3 1.8-6 5-6.8l7.8-1.8c-6-3.4-11.4-8.9-11.6-19.4-.1-1.6-.2-16.2 13.6-21.6V91c0-3.9 2.6-6.5 6.5-6.5h11.1c3.9 0 6.5 2.5 6.5 6.5v3.9c10.9 4.4 13.5 14.3 14 20.2.4 3.4-1.5 6.1-5 6.9l-6.6 1.6c6.7 3.6 13 9.4 13.1 20.7.2 4.3-2.5 17.1-16.4 21.8v3.5c0 3.9-2.5 6.5-6.5 6.5h-11c0-.3-.1-.3-.2-.3zm.8-7h10.1v-8.4l2.7-.6c13.6-3.2 13.7-15.5 13.7-15.6-.2-11.7-9.5-15.1-17.7-18.1-5.6-2.1-10.5-3.9-11.5-8.4-.5-1.9-.1-4 1.2-5.6 1.5-1.9 3.8-3 6.6-3.1 5.5-.1 9.3 2.9 10.6 8.4l9.2-2.2c-.6-5.4-3.1-12.1-11.4-14.5l-2.5-.7v-8.5h-10.1v8.3l-2.6.7c-11 3.1-11.1 13.5-11.1 15.5.2 11.4 8.5 14.3 16.5 17 5.5 1.9 10.7 3.7 11.8 8.6.5 2 0 4.3-1.3 6.1-1.2 1.6-3.6 3.5-8.4 3.6-8.7.2-10.3-6.1-10.8-9.3l-9.1 2.1c.9 8.4 4.7 13.5 11.5 15.5l2.5.7v8.5zm1.8-29.2c0 .1 0 .2.1.4v.1c.4 3.7 1.1 4.1 3.8 4 2 0 2.7-.6 2.9-.8.1-.2.1-.3.1-.3-.3-1.1-4.1-2.4-6.9-3.4zm-16.3 4.5zm18.6-28c.4.7 2.5 1.6 4.7 2.4-.6-2.3-1.8-2.8-3.6-2.7-.6 0-1 .2-1.1.3zm11.8 2.2zm9-2.7z"/></g></g><g><path fill="#29D9C2" d="M335.4 188.7H234.6c-5.1 0-9.2-4.1-9.2-9.2V82.4c0-5.1 4.1-9.2 9.2-9.2h100.8c5.1 0 9.2 4.1 9.2 9.2v97.1c0 5.1-4.1 9.2-9.2 9.2z"/><path d="M335.4 192.2H234.6c-7 0-12.7-5.7-12.7-12.7V82.4c0-7 5.7-12.7 12.7-12.7h100.8c7 0 12.7 5.7 12.7 12.7v97.1c0 7-5.7 12.7-12.7 12.7zM234.6 76.6c-3.2 0-5.7 2.6-5.7 5.7v97.1c0 3.2 2.6 5.7 5.7 5.7h100.8c3.2 0 5.7-2.6 5.7-5.7v-97c0-3.2-2.6-5.7-5.7-5.7H234.6z"/></g><g><path fill="#01A2A6" d="M265.1 111.1c1.1 0 1.7.6 1.7 1.7v6.3c0 1.1-.6 1.7-1.7 1.7h-13.6c-1.1 0-1.7.6-1.7 1.7v1.8c0 1.1.6 1.7 1.7 1.7h8.7c1.1 0 1.7.6 1.7 1.7v6.3c0 1.1-.6 1.7-1.7 1.7h-8.7c-1.1 0-1.7.6-1.7 1.7v1.8c0 1.1.6 1.7 1.7 1.7h13.6c1.1 0 1.7.6 1.7 1.7v6.3c0 1.1-.6 1.7-1.7 1.7h-23.7c-1.1 0-1.7-.6-1.7-1.7v-36.1c0-1.1.6-1.7 1.7-1.7h23.7zM270.5 123.8c0-3.7.8-13.7 14.2-13.7 12 0 13.9 8.1 14.1 12.4.1.8-.5 1.4-1.2 1.6l-6.3 1.4c-1.2.2-2.1-.6-2.3-1.7-.3-2.5-1.3-3.9-4.3-3.9-4.2 0-4.5 2.7-4.5 7v8.1c0 4.3.3 7 4.5 7 3.1 0 3.9-1.5 4.3-4.1.2-1.2 1.1-1.9 2.2-1.6l6.4 1.4c.8.2 1.3.8 1.2 1.6-.2 4.3-2.1 12.4-14.1 12.4-13.4 0-14.2-10-14.2-13.7v-14.2zM328.6 111.1c1.1 0 1.7.6 1.7 1.7v6.3c0 1.1-.6 1.7-1.7 1.7h-14.2c-1.1 0-1.7.6-1.7 1.7v1.8c0 1.1.6 1.7 1.7 1.7h9.3c1.1 0 1.7.6 1.7 1.7v6.3c0 1.1-.6 1.7-1.7 1.7h-9.3c-1.1 0-1.7.6-1.7 1.7v11.5c0 1.1-.6 1.7-1.7 1.7h-6.7c-1.1 0-1.7-.6-1.7-1.7v-36.1c0-1.1.6-1.7 1.7-1.7h24.3z"/></g></g></svg>