<svg xmlns="http://www.w3.org/2000/svg" viewBox="0 0 570 260"><path fill="#4F4F4F" d="M155.6 218.3V69.8c0-6.4 5.1-11.5 11.5-11.5h235.8c6.4 0 11.5 5.1 11.5 11.5v148.5c0 5.8-4.7 10.4-10.4 10.4H166c-5.8 0-10.4-4.6-10.4-10.4z"/><path d="M404 232.2H166c-7.7 0-13.9-6.2-13.9-13.9V69.8c0-8.3 6.7-15 15-15h235.8c8.3 0 15 6.7 15 15v148.5c0 7.7-6.2 13.9-13.9 13.9zM167.1 61.8c-4.4 0-8 3.6-8 8v148.5c0 3.8 3.1 6.9 6.9 6.9h238c3.8 0 6.9-3.1 6.9-6.9V69.8c0-4.4-3.6-8-8-8H167.1z"/><path fill="#4F4F4F" d="M330.9 58.3h-18V42.9c0-1.5-1.2-2.7-2.7-2.7h-50.4c-1.5 0-2.7 1.2-2.7 2.7v15.5h-18V42.9c0-11.4 9.3-20.7 20.7-20.7h50.4c11.4 0 20.7 9.3 20.7 20.7v15.4z"/><path d="M334.4 61.8h-25V43.7h-48.8v18.2h-25v-19c0-13.3 10.8-24.2 24.2-24.2h50.4c13.3 0 24.2 10.8 24.2 24.2v18.9zm-18-7h11v-12c0-9.5-7.7-17.2-17.2-17.2h-50.4c-9.5 0-17.2 7.7-17.2 17.2v12h11v-12c0-3.4 2.8-6.2 6.2-6.2h50.4c3.4 0 6.2 2.8 6.2 6.2v12z"/><path fill="#191919" d="M259.8 22.2h50.4v18h-50.4z"/><path d="M313.7 43.7h-57.4v-25h57.4v25zm-50.4-7h43.4v-11h-43.4v11zM404 232.2H166c-7.7 0-13.9-6.2-13.9-13.9V69.8c0-8.3 6.7-15 15-15h235.8c8.3 0 15 6.7 15 15v148.5c0 7.7-6.2 13.9-13.9 13.9zM167.1 61.8c-4.4 0-8 3.6-8 8v148.5c0 3.8 3.1 6.9 6.9 6.9h238c3.8 0 6.9-3.1 6.9-6.9V69.8c0-4.4-3.6-8-8-8H167.1z"/><path fill="#353535" d="M269.7 150.3l-106-31.8c-1.4-.4-2.9-.2-4.1.4V129c.3.1.6.3.9.4l106 31.8c.5.2 1.1.2 1.6.2 2.4 0 4.7-1.6 5.4-4 .8-3.1-.9-6.2-3.8-7.1z"/><g><path fill="#353535" d="M300.4 150.3l106-31.8c1.4-.4 2.9-.2 4.1.4V129c-.3.1-.6.3-.9.4l-106 31.8c-.5.2-1.1.2-1.6.2-2.4 0-4.7-1.6-5.4-4-.9-3.1.8-6.2 3.8-7.1z"/></g><g><path fill="#4F4F4F" d="M414.4 114.2L308.7 146c-15.4 4.6-31.9 4.6-47.4 0l-105.7-31.8V70c0-6.4 5.2-11.6 11.6-11.6h235.6c6.4 0 11.6 5.2 11.6 11.6v44.2z"/><path d="M285 153c-8.3 0-16.6-1.2-24.7-3.6l-108.2-32.5V70c0-8.3 6.8-15.1 15.1-15.1h235.6c8.3 0 15.1 6.8 15.1 15.1v46.9l-108.2 32.5c-8.1 2.4-16.4 3.6-24.7 3.6zm-125.9-41.4l103.2 31c14.8 4.5 30.5 4.5 45.3 0l103.2-31V70c0-4.5-3.6-8.1-8.1-8.1H167.2c-4.5 0-8.1 3.6-8.1 8.1v41.6z"/></g><g><path fill="#DDC3A6" d="M286.6 174h-3.3c-7 0-12.7-5.7-12.7-12.7V142c0-2.5 2-4.6 4.6-4.6h19.6c2.5 0 4.6 2 4.6 4.6v19.3c0 7-5.7 12.7-12.8 12.7z"/><path d="M286.6 177.5h-3.3c-9 0-16.2-7.3-16.2-16.2V142c0-4.4 3.6-8.1 8.1-8.1h19.6c4.4 0 8.1 3.6 8.1 8.1v19.3c0 8.9-7.3 16.2-16.3 16.2zm-11.4-36.6c-.6 0-1.1.5-1.1 1.1v19.3c0 5.1 4.1 9.2 9.2 9.2h3.3c5.1 0 9.2-4.1 9.2-9.2V142c0-.6-.5-1.1-1.1-1.1h-19.5z"/><g><path d="M270.6 155.6h28.8v7h-28.8z"/></g></g><g><path fill="#937667" d="M62.646 78.233l52.622 33.54-23.49 36.853-52.62-33.54z"/><path d="M91.8 152.1c-.6 0-1.3-.2-1.9-.5L37.3 118c-.8-.5-1.3-1.3-1.5-2.2-.2-.9 0-1.9.5-2.6l23.5-36.8c.5-.8 1.3-1.3 2.2-1.5.9-.2 1.9 0 2.6.5l52.6 33.6c.8.5 1.3 1.3 1.5 2.2.2.9 0 1.9-.5 2.6l-23.5 36.8c-.6 1-1.7 1.5-2.9 1.5zM44 114l46.7 29.8 19.7-30.9-46.7-29.8L44 114z"/><path fill="#937667" d="M31.4 116.6l.5.3c2.3 1.5 5.4.8 6.9-1.5l24-37.7c1.5-2.3.8-5.4-1.5-6.9l-.5-.3c-2.3-1.5-5.4-.8-6.9 1.5l-24 37.7c-1.5 2.4-.8 5.4 1.5 6.9z"/><path d="M34.6 121.2c-1.6 0-3.2-.5-4.5-1.3l-.5-.3c-3.9-2.5-5.1-7.8-2.6-11.7l24-37.7c2.5-3.9 7.8-5.1 11.7-2.6l.5.3c1.9 1.2 3.2 3.1 3.7 5.3.5 2.2.1 4.5-1.1 6.4l-24 37.7c-1.2 1.9-3.1 3.2-5.3 3.7-.7.2-1.3.2-1.9.2zm-1.3-7.5l.5.3c.4.3.9.2 1.1.2.2 0 .6-.2.9-.6l24-37.7c.3-.4.2-.9.2-1.1 0-.2-.2-.6-.6-.9l-.5-.3c-.7-.4-1.6-.2-2 .5l-24 37.7c-.5.5-.3 1.4.4 1.9z"/><path fill="#937667" d="M93.2 156l.5.3c2.3 1.5 5.4.8 6.9-1.5l24-37.7c1.5-2.3.8-5.4-1.5-6.9l-.5-.3c-2.3-1.5-5.4-.8-6.9 1.5l-24 37.7c-1.5 2.4-.8 5.4 1.5 6.9z"/><path d="M96.4 160.6c-1.6 0-3.2-.5-4.5-1.3l-.5-.3c-1.9-1.2-3.2-3.1-3.7-5.3s-.1-4.5 1.1-6.4l24-37.7c1.2-1.9 3.1-3.2 5.3-3.7s4.5-.1 6.4 1.1l.5.3c3.9 2.5 5.1 7.8 2.6 11.7l-24 37.7c-1.2 1.9-3.1 3.2-5.3 3.7-.7.2-1.3.2-1.9.2zm-1.3-7.5l.5.3c.4.3.9.2 1.1.2.2 0 .6-.2.9-.6l24-37.7c.4-.7.2-1.6-.5-2l-.5-.3c-.4-.3-.9-.2-1.1-.2-.2 0-.6.2-.9.6l-24 37.7c-.3.4-.2.9-.2 1.1.1.2.2.6.7.9z"/><g><path fill="#333" d="M71.09 83.62l6.915 4.407-23.488 36.852-6.915-4.408z"/><path d="M54.5 126.9c-.4 0-.8-.1-1.1-.3l-6.9-4.4c-.9-.6-1.2-1.8-.6-2.8l23.5-36.8c.6-.9 1.8-1.2 2.8-.6l6.9 4.4c.4.3.8.7.9 1.3.1.5 0 1.1-.3 1.5L56.2 126c-.3.4-.7.8-1.3.9-.1-.1-.2 0-.4 0zm-4.1-7.1l3.5 2.3 21.3-33.4-3.5-2.3-21.3 33.4z"/><g><path fill="#333" d="M99.992 102.034l6.915 4.407-23.49 36.853-6.914-4.407z"/><path d="M83.4 145.3c-.4 0-.7-.1-1.1-.3l-6.9-4.4c-.4-.3-.8-.7-.9-1.3-.1-.5 0-1.1.3-1.5L98.3 101c.3-.4.7-.8 1.3-.9.5-.1 1.1 0 1.5.3l6.9 4.4c.9.6 1.2 1.8.6 2.8l-23.5 36.8c-.4.5-1 .9-1.7.9zm-4.1-7.1l3.5 2.3 21.3-33.4-3.5-2.3-21.3 33.4z"/></g></g><g><path fill="#937667" d="M61.25 129.11l8.517 5.43-50.256 78.848-8.517-5.428z"/><path d="M19.5 216.9c-.7 0-1.3-.2-1.9-.5L9.1 211c-1.6-1-2.1-3.2-1.1-4.8l50.3-78.9c1-1.6 3.2-2.1 4.8-1.1l8.5 5.4c.8.5 1.3 1.3 1.5 2.2.2.9 0 1.9-.5 2.6l-50.3 78.9c-.5.8-1.3 1.3-2.2 1.5-.1.1-.3.1-.6.1zm-3.7-10l2.6 1.7 46.5-73-2.6-1.7-46.5 73z"/></g><g><ellipse cx="12.3" cy="214.9" fill="#937667" transform="rotate(-57.488 12.298 214.843)" rx="7.3" ry="7.3"/><path d="M12.3 225.6c-2 0-4-.5-5.8-1.7-2.4-1.5-4.1-4-4.7-6.8-.6-2.8-.1-5.7 1.4-8.1 1.5-2.4 4-4.1 6.8-4.7 2.8-.6 5.7-.1 8.1 1.4 5 3.2 6.5 9.9 3.3 14.9-2.1 3.3-5.5 5-9.1 5zm6.2-6.8zm-6.2-7.7c-1.3 0-2.5.6-3.2 1.8-.5.9-.7 1.9-.5 2.9s.8 1.8 1.7 2.4c.9.5 1.9.7 2.9.5 1-.2 1.8-.8 2.4-1.7 1.1-1.8.6-4.1-1.2-5.2-.7-.5-1.4-.7-2.1-.7z"/></g><g><path fill="#333" d="M43.83 156.42l8.516 5.43-23.704 37.19-8.517-5.43z"/><path d="M28.7 201c-.4 0-.8-.1-1.1-.3l-8.5-5.4c-.9-.6-1.2-1.8-.6-2.8l23.7-37.2c.6-.9 1.8-1.2 2.8-.6l8.5 5.4c.4.3.8.7.9 1.3.1.5 0 1.1-.3 1.5l-23.7 37.2c-.3.4-.7.8-1.3.9h-.4zm-5.8-8.1l5.2 3.3 21.5-33.8-5.2-3.3-21.5 33.8z"/></g></g><g><path fill="#937667" d="M173.9 226.5H92.4v-.8c0-7.4 6-13.3 13.3-13.3h54.8c7.4 0 13.3 6 13.3 13.3v.8z"/><path d="M173.9 230H92.4c-1.9 0-3.5-1.6-3.5-3.5v-.8c0-9.3 7.5-16.8 16.8-16.8h54.8c9.3 0 16.8 7.5 16.8 16.8v.8c.1 2-1.5 3.5-3.4 3.5zm-77.6-7H170c-1.2-4.1-5-7.2-9.5-7.2h-54.8c-4.5.1-8.3 3.1-9.4 7.2z"/></g><g><path fill="#937667" d="M87.7 226.5h90.8v9.3H87.7z"/><path d="M178.5 239.4H87.7c-1.9 0-3.5-1.6-3.5-3.5v-9.3c0-1.9 1.6-3.5 3.5-3.5h90.8c1.9 0 3.5 1.6 3.5 3.5v9.3c0 1.9-1.5 3.5-3.5 3.5zm-87.3-7H175V230H91.2v2.4z"/></g><g><path fill="#1C5379" d="M436.3 33.1h-21.2L409.3 4h32.8"/><path d="M436.3 36.6h-21.2c-1.7 0-3.1-1.2-3.4-2.8l-5.8-29.1c-.2-1 .1-2.1.7-2.9.7-.8 1.7-1.3 2.7-1.3h32.9c1 0 2 .5 2.7 1.3.7.8.9 1.9.7 2.9l-5.8 29.1c-.4 1.6-1.8 2.8-3.5 2.8zm-18.3-7h15.5l4.4-22.1h-24.3l4.4 22.1z"/><path fill="#1C5379" d="M415.1 33.1h21.2l10.3 209.7-20.9 13.6-20.8-13.6"/><path d="M425.7 259.9c-.7 0-1.3-.2-1.9-.6L403 245.7c-1-.7-1.6-1.9-1.6-3.1l10.2-209.7c.1-1.9 1.6-3.3 3.5-3.3h21.2c1.9 0 3.4 1.5 3.5 3.3L450 242.6c.1 1.2-.5 2.4-1.6 3.1l-20.8 13.6c-.6.4-1.2.6-1.9.6zm-17.2-19l17.2 11.3 17.2-11.3L433 36.6h-14.5l-10 204.3z"/><g><path fill="#A7A9AC" d="M431.4 152.8h-30.2v-8.1h30.2c2.2 0 4 1.8 4 4 0 2.3-1.8 4.1-4 4.1z"/><path d="M431.4 154.3h-30.2c-.8 0-1.5-.7-1.5-1.5v-8.1c0-.8.7-1.5 1.5-1.5h30.2c3 0 5.5 2.5 5.5 5.5s-2.5 5.6-5.5 5.6zm-28.7-3h28.7c1.4 0 2.5-1.1 2.5-2.5s-1.1-2.5-2.5-2.5h-28.7v5z"/></g></g><g><path d="M475.4 182.2c-.3 0-.7-.1-1-.3-1-.5-1.3-1.8-.8-2.7l5.1-9.1c.5-1 1.8-1.3 2.7-.8 1 .5 1.3 1.8.8 2.7l-5.1 9.1c-.3.7-1 1.1-1.7 1.1zM483.1 168.3c-.3 0-.7-.1-1-.3-1-.5-1.3-1.8-.8-2.7l5.1-9.1c.5-1 1.8-1.3 2.7-.8 1 .5 1.3 1.8.8 2.7l-5.1 9.1c-.3.8-1 1.1-1.7 1.1z"/><path fill="#D8D8D8" d="M470.8 188.5c-10.7-6-24.2-2.1-30.2 8.6s-2.1 24.2 8.6 30.2 24.2 2.1 30.2-8.6c6-10.8 2.1-24.3-8.6-30.2zm-15.9 28.6c-5.1-2.8-6.9-9.3-4.1-14.3 2.8-5.1 9.3-6.9 14.3-4.1 5.1 2.8 6.9 9.3 4.1 14.3-2.8 5.1-9.2 6.9-14.3 4.1z"/><path d="M460 233.5c-4.2 0-8.5-1-12.4-3.2-6-3.3-10.3-8.8-12.2-15.4-1.9-6.6-1.1-13.5 2.3-19.5 6.9-12.4 22.6-16.8 34.9-10 6 3.3 10.3 8.8 12.2 15.4 1.9 6.6 1.1 13.5-2.3 19.5-4.7 8.5-13.5 13.2-22.5 13.2zm.1-44.3c-6.6 0-12.9 3.5-16.4 9.6-2.4 4.4-3 9.4-1.6 14.2 1.4 4.8 4.5 8.8 8.9 11.2 9 5 20.4 1.8 25.4-7.2 2.4-4.4 3-9.4 1.6-14.2-1.4-4.8-4.5-8.8-8.9-11.2-2.9-1.7-6-2.4-9-2.4zm-.1 32.7c-2.3 0-4.6-.6-6.8-1.8-3.3-1.8-5.7-4.8-6.7-8.4-1-3.6-.6-7.4 1.2-10.7 1.8-3.3 4.8-5.7 8.4-6.7 3.6-1 7.4-.6 10.7 1.2 3.3 1.8 5.7 4.8 6.7 8.4 1 3.6.6 7.4-1.2 10.7-2.6 4.7-7.4 7.3-12.3 7.3zm0-21.1c-.6 0-1.3.1-1.9.3-1.8.5-3.3 1.7-4.2 3.4-1.9 3.4-.7 7.7 2.7 9.6 3.4 1.9 7.7.7 9.6-2.7.9-1.6 1.1-3.5.6-5.4-.5-1.8-1.7-3.3-3.4-4.2-1-.7-2.2-1-3.4-1z"/><path fill="#D8D8D8" d="M465.325 174.588l20.187 11.23-5.542 9.96-20.187-11.228z"/><path d="M480 199.2c-.6 0-1.2-.1-1.7-.4l-20.1-11.2c-1.7-.9-2.3-3.1-1.4-4.8l5.5-9.9c.5-.8 1.2-1.4 2.1-1.7.9-.3 1.8-.1 2.7.3l20.1 11.2c1.7.9 2.3 3.1 1.4 4.8l-5.5 9.9c-.5.8-1.2 1.4-2.1 1.7-.4.1-.7.1-1 .1zm-15.4-16l14 7.8 2.1-3.8-14-7.8-2.1 3.8z"/><path fill="#D8D8D8" d="M524.4 155c-6 10.7-2.1 24.2 8.6 30.2s24.2 2.1 30.2-8.6 2.1-24.2-8.6-30.2-24.2-2.1-30.2 8.6zm28.6 15.9c-2.8 5.1-9.3 6.9-14.3 4.1-5.1-2.8-6.9-9.3-4.1-14.3 2.8-5.1 9.3-6.9 14.3-4.1 5.1 2.8 7 9.2 4.1 14.3z"/><path d="M543.8 191.4c-4.2 0-8.5-1-12.4-3.2-6-3.3-10.3-8.8-12.2-15.4-1.9-6.6-1.1-13.5 2.3-19.5 3.3-6 8.8-10.3 15.4-12.2 6.6-1.9 13.5-1.1 19.5 2.3 6 3.3 10.3 8.8 12.2 15.4 1.9 6.6 1.1 13.5-2.3 19.5-4.7 8.4-13.5 13.1-22.5 13.1zm0-44.3c-1.7 0-3.5.2-5.2.7-4.8 1.4-8.8 4.5-11.2 8.9-2.4 4.4-3 9.4-1.6 14.2 1.4 4.8 4.5 8.8 8.9 11.2 9 5 20.4 1.8 25.4-7.2s1.8-20.4-7.2-25.4c-2.8-1.6-5.9-2.4-9.1-2.4zm-19.4 7.9zm19.4 24.8c-2.3 0-4.6-.6-6.8-1.8-6.8-3.8-9.2-12.3-5.4-19.1 1.8-3.3 4.8-5.7 8.4-6.7 3.6-1 7.4-.6 10.7 1.2 3.3 1.8 5.7 4.8 6.7 8.4 1 3.6.6 7.4-1.2 10.7-2.7 4.7-7.5 7.3-12.4 7.3zm0-21.1c-.6 0-1.3.1-1.9.3-1.8.5-3.3 1.7-4.2 3.4-1.9 3.4-.7 7.7 2.7 9.6 3.4 1.9 7.7.7 9.6-2.7.9-1.6 1.1-3.5.6-5.4-.5-1.8-1.7-3.3-3.4-4.2-1-.7-2.2-1-3.4-1zm9.2 12.2z"/><path fill="#D8D8D8" d="M510.498 160.395l11.23-20.187 9.96 5.542-11.228 20.187z"/><path d="M520.5 169.5c-.6 0-1.2-.1-1.7-.4l-9.9-5.5c-1.7-.9-2.3-3.1-1.4-4.8l11.2-20.1c.9-1.7 3.1-2.3 4.8-1.4l9.9 5.5c.8.5 1.4 1.2 1.7 2.1.3.9.1 1.9-.3 2.7l-11.2 20.1c-.7 1.1-1.9 1.8-3.1 1.8zm-5.2-10.4l3.8 2.1 7.8-14-3.8-2.1-7.8 14zM479.8 176.8c-.8 0-1.5-.2-2.2-.6-1.5-.8-2.4-2.5-2.5-4.6-.1-1.7.4-3.7 1.4-5.4 1-1.8 2.4-3.2 3.9-4.1 1.8-1 3.7-1.1 5.2-.3 2.8 1.6 3.3 6 1.1 10-1 1.8-2.4 3.2-3.9 4.1-1 .6-2 .9-3 .9zm3.6-11.4c-.2 0-.6.1-1 .3-.9.5-1.7 1.4-2.3 2.5-.6 1.1-1 2.3-.9 3.3 0 .7.2 1.1.4 1.2.2.1.7.1 1.3-.3.9-.5 1.7-1.4 2.3-2.5 1.2-2.2 1-4.2.5-4.5h-.3z"/><g><path d="M487.9 162.2c-.8 0-1.5-.2-2.2-.6-2.8-1.6-3.3-6-1.1-10 2.2-4 6.2-5.9 9-4.3 2.8 1.6 3.3 6 1.1 10-1 1.8-2.4 3.2-3.9 4.1-.9.5-1.9.8-2.9.8zm3.6-11.4c-.7 0-2.2.9-3.3 2.9-1.2 2.2-1 4.2-.5 4.5.2.1.7.1 1.3-.3.9-.5 1.7-1.4 2.3-2.5 1.2-2.2 1-4.2.5-4.5-.1-.1-.2-.1-.3-.1zm1.5 5.5z"/></g><g><path d="M501.5 151.8c-.9 0-1.7-.1-2.4-.3-2-.6-3.4-1.8-3.9-3.5-.5-1.6.1-3.5 1.5-5 1.2-1.3 2.9-2.3 4.8-2.8 1.9-.6 3.9-.6 5.6-.1 2 .6 3.4 1.8 3.9 3.5.5 1.6-.1 3.5-1.5 5-1.2 1.3-2.9 2.3-4.8 2.8-1.1.2-2.2.4-3.2.4zm3.2-8.1c-.7 0-1.4.1-2.1.3-1.2.3-2.3 1-3 1.7-.5.5-.6 1-.6 1.2.1.2.4.5 1.1.7 1 .3 2.2.2 3.4-.1 1.2-.3 2.3-1 3-1.7.5-.5.6-1 .6-1.2-.1-.2-.4-.5-1.1-.7-.4-.1-.8-.2-1.3-.2z"/></g><g><path d="M515.3 151.9c-.3 0-.7-.1-1-.3l-9.1-5.1c-1-.5-1.3-1.8-.8-2.7.5-1 1.8-1.3 2.7-.8l9.1 5.1c1 .5 1.3 1.8.8 2.7-.4.7-1 1.1-1.7 1.1z"/></g><g><path d="M491.3 153c-.7 0-1.3-.3-1.7-1-.6-.9-.3-2.2.7-2.7l9-5.4c.9-.6 2.2-.3 2.7.7.6.9.3 2.2-.7 2.7l-9 5.4c-.3.2-.6.3-1 .3z"/></g></g></svg>