<svg xmlns="http://www.w3.org/2000/svg" viewBox="0 0 570 260"><path d="M565.1 258.2H4.9c-1.9 0-3.5-1.6-3.5-3.5s1.6-3.5 3.5-3.5h560.2c1.9 0 3.5 1.6 3.5 3.5s-1.6 3.5-3.5 3.5z"/><path fill="#2C3E50" d="M70 76.3h429.9v178.4H70z"/><path d="M500 258.3H70c-1.9 0-3.5-1.6-3.5-3.5V76.3c0-1.9 1.6-3.5 3.5-3.5h430c1.9 0 3.5 1.6 3.5 3.5v178.4c0 2-1.6 3.6-3.5 3.6zm-426.5-7h422.9V79.8H73.5v171.5z"/><path fill="#3498DB" d="M489 9.2H81L70 44.4v49.4h430V44.4"/><path d="M500 97.3H70c-1.9 0-3.5-1.6-3.5-3.5V44.4c0-.4.1-.7.2-1l11-35.2c.5-1.5 1.8-2.5 3.3-2.5h408c1.5 0 2.9 1 3.3 2.5l11 35.2c.1.3.2.7.2 1v49.4c0 1.9-1.6 3.5-3.5 3.5zm-426.5-7h422.9V44.9l-10-32.2H83.6l-10 32.2v45.4z"/><path fill="#3498DB" d="M533.6 76.3H37.5l-26.3 41.5h547.6"/><path d="M558.8 121.3H11.2c-1.3 0-2.5-.7-3.1-1.8s-.6-2.5.1-3.6l26.3-41.5c.6-1 1.8-1.6 3-1.6h496.1c1.2 0 2.4.6 3 1.7l25.2 41.5c.7 1.1.7 2.4.1 3.5-.7 1.1-1.8 1.8-3.1 1.8zm-541.2-7h535l-20.9-34.5H39.4l-21.8 34.5z"/><path fill="#6D6E71" d="M11.2 118.1h547.6v17.5H11.2z"/><path d="M558.8 139.1H11.2c-1.9 0-3.5-1.6-3.5-3.5v-17.5c0-1.9 1.6-3.5 3.5-3.5h547.6c1.9 0 3.5 1.6 3.5 3.5v17.5c0 2-1.6 3.5-3.5 3.5zm-544.1-7h540.6v-10.5H14.7v10.5z"/><path fill="#E6E7E8" d="M188.3 135.6h193.4v29.9H188.3z"/><path d="M381.7 169H188.3c-1.9 0-3.5-1.6-3.5-3.5v-29.9c0-1.9 1.6-3.5 3.5-3.5h193.4c1.9 0 3.5 1.6 3.5 3.5v29.9c0 2-1.6 3.5-3.5 3.5zm-189.9-7h186.4v-22.9H191.8V162zM70 40.9h429.9v7H70zM75.8 22.4h418.4v7H75.8zM70 56h429.9v7H70z"/><path d="M281.3 9.2h7v67.1h-7zM247.3 9.2h7v67.1h-7zM217.5 9.2h7v67.1h-7zM187.8 9.2h7v67.1h-7zM135.2 76.3h-7V25.9c0-.4.1-.7.2-1.1l5.2-16.7 6.7 2.1-5.1 16.2v49.9zM165.1 76.3h-7V25.9c0-.4.1-.7.2-1.1l5.2-16.7 6.7 2.1-5.1 16.2v49.9zM105.4 76.3h-7V25.9c0-.4.1-.8.2-1.2L104.7 8l6.6 2.4-5.9 16.1v49.8z"/><path fill="#3498DB" d="M318.8 76.3V9.2"/><path d="M315.3 9.2h7v67.1h-7z"/><path fill="#3498DB" d="M348.5 76.3V9.2"/><path d="M345 9.2h7v67.1h-7z"/><path fill="#3498DB" d="M378.3 76.3V9.2"/><path d="M374.8 9.2h7v67.1h-7zM441.3 76.3h-7V26.4l-5.1-16.2 6.7-2.1 5.2 16.7c.1.3.2.7.2 1.1v50.4zM411.6 76.3h-7V26.4l-5.1-16.2 6.7-2.1 5.2 16.7c.1.3.2.7.2 1.1v50.4zM471.1 76.3h-7V26.5l-5.9-16.1 6.6-2.4 6.1 16.7c.1.4.2.8.2 1.2v50.4zM208.3 149.3c-.3.1-.4-.1-.4-.3-.1-.5-.5-.9-1.1-.9-.5 0-.8.3-.8.6.2 1 4.3 1 4.3 4 0 .4-.4 2.7-3.6 2.7-2.8 0-3.3-1.8-3.4-2.8 0-.2.1-.4.3-.4l1.5-.3c.3-.1.4.1.4.3.1.6.5 1 1.2 1 .6 0 1.1-.4 1-.7-.2-1.1-4.2-.9-4.2-3.9 0-.4.2-2.7 3.2-2.7 2.7 0 3.3 1.8 3.4 2.7 0 .2-.1.4-.3.4l-1.5.3zM213.1 146c.2 0 .4.1.4.4v3.3c0 .2.1.4.4.4h1.3c.3 0 .4-.1.4-.4v-3.3c0-.3.1-.4.4-.4h1.5c.3 0 .4.1.4.4v8.4c0 .2-.1.4-.4.4H216c-.2 0-.4-.1-.4-.4v-2.1c0-.3-.1-.4-.4-.4h-1.3c-.2 0-.4.1-.4.4v2.1c0 .2-.1.4-.4.4h-1.5c-.2 0-.4-.1-.4-.4v-8.4c0-.3.1-.4.4-.4h1.5zM225.5 154.7c0 .3-.1.4-.4.4h-1.5c-.2 0-.4-.1-.4-.4v-1.1c0-.3-.1-.4-.4-.4h-1.1c-.2 0-.4.1-.4.4v1.1c0 .3-.1.4-.4.4h-1.5c-.2 0-.4-.2-.4-.4v-5.6c0-1.7.3-3.4 3.2-3.4 3 0 3.2 1.8 3.2 3.4v5.6zm-2.3-5.5c0-.6-.1-.9-1-.9s-1 .3-1 .9v1.4c0 .2.1.4.4.4h1.1c.3 0 .4-.1.4-.4v-1.4zM226.3 146.4c-.1-.3.1-.4.4-.4h1.6c.2 0 .4.1.4.3l.7 5.5c0 .1.1.1.2 0l.9-5.5c0-.2.2-.3.4-.3h1.1c.2 0 .4.1.4.3l.9 5.5c0 .1.1.1.2 0l.7-5.5c0-.2.2-.3.4-.3h1.6c.3 0 .4.2.4.4l-1.6 8.4c0 .2-.2.3-.4.3h-1.9c-.2 0-.4-.1-.4-.3l-.7-3.2c0-.1-.1-.1-.2 0l-.7 3.2c-.1.2-.2.3-.4.3h-1.9c-.2 0-.4-.1-.4-.3l-1.7-8.4zM241.2 148.9c0-.9.2-3.2 3.3-3.2 2.8 0 3.2 1.9 3.3 2.9 0 .2-.1.3-.3.4l-1.5.3c-.3.1-.5-.1-.5-.4-.1-.6-.3-.9-1-.9-1 0-1 .6-1 1.6v1.9c0 1 .1 1.6 1 1.6.7 0 .9-.3 1-.9 0-.3.2-.4.5-.4l1.5.3c.2 0 .3.2.3.4-.1 1-.5 2.9-3.3 2.9-3.1 0-3.3-2.3-3.3-3.2v-3.3zM255.2 152.2c0 .9-.2 3.2-3.3 3.2-3.1 0-3.3-2.3-3.3-3.2v-3.3c0-.9.2-3.2 3.3-3.2 3.1 0 3.3 2.3 3.3 3.2v3.3zm-2.3-2.6c0-1-.1-1.6-1-1.6-1 0-1 .6-1 1.6v1.9c0 1 .1 1.6 1 1.6 1 0 1-.6 1-1.6v-1.9zM258.7 146c.2 0 .4.1.5.3l1.8 4.4c.1.1.2.1.2 0v-4.2c0-.3.1-.4.4-.4h1.5c.3 0 .4.1.4.4v8.4c0 .2-.1.4-.4.4H261c-.2 0-.4-.1-.5-.3l-1.8-4.4c-.1-.1-.2-.1-.2 0v4.2c0 .2-.1.4-.4.4h-1.5c-.2 0-.4-.1-.4-.4v-8.4c0-.3.1-.4.4-.4h2.1zM270.7 146c.3 0 .4.1.4.4v1.5c0 .2-.1.4-.4.4h-3.3c-.3 0-.4.1-.4.4v.4c0 .2.1.4.4.4h2.2c.3 0 .4.1.4.4v1.5c0 .3-.1.4-.4.4h-2.2c-.3 0-.4.1-.4.4v2.7c0 .2-.1.4-.4.4H265c-.2 0-.4-.1-.4-.4v-8.4c0-.3.1-.4.4-.4h5.7zM277.8 146c.3 0 .4.1.4.4v1.5c0 .2-.1.4-.4.4h-3.2c-.3 0-.4.1-.4.4v.4c0 .2.1.4.4.4h2c.3 0 .4.1.4.4v1.5c0 .3-.1.4-.4.4h-2c-.3 0-.4.1-.4.4v.4c0 .3.1.4.4.4h3.2c.3 0 .4.1.4.4v1.5c0 .3-.1.4-.4.4h-5.5c-.2 0-.4-.1-.4-.4v-8.4c0-.3.1-.4.4-.4h5.5zM286.1 154.5c.2.3 0 .7-.4.7h-1.5c-.1 0-.2-.1-.3-.2l-1.4-2.6-.1-.1h-.5c-.2 0-.4.2-.4.4v2.1c0 .2-.2.4-.4.4h-1.5c-.2 0-.4-.2-.4-.4v-8.4c0-.2.2-.4.4-.4h2.9c2.3 0 3.3 1 3.3 3.2 0 1.2-.3 2.1-1 2.6-.1 0-.1.1 0 .2l1.3 2.5zm-4.2-6.2c-.2 0-.4.2-.4.4v1c0 .2.2.4.4.4h.7c.6 0 .9-.1.9-.9s-.3-.9-.9-.9h-.7zM292.9 146c.3 0 .4.1.4.4v1.5c0 .2-.1.4-.4.4h-3.2c-.3 0-.4.1-.4.4v.4c0 .2.1.4.4.4h2c.3 0 .4.1.4.4v1.5c0 .3-.1.4-.4.4h-2c-.3 0-.4.1-.4.4v.4c0 .3.1.4.4.4h3.2c.3 0 .4.1.4.4v1.5c0 .3-.1.4-.4.4h-5.5c-.3 0-.4-.1-.4-.4v-8.4c0-.3.1-.4.4-.4h5.5zM296.6 146c.2 0 .4.1.5.3l1.8 4.4c.1.1.2.1.2 0v-4.2c0-.3.1-.4.4-.4h1.5c.3 0 .4.1.4.4v8.4c0 .2-.1.4-.4.4h-2c-.2 0-.4-.1-.5-.3l-1.8-4.4c-.1-.1-.2-.1-.2 0v4.2c0 .2-.1.4-.4.4h-1.5c-.3 0-.4-.1-.4-.4v-8.4c0-.3.1-.4.4-.4h2zM302.5 148.9c0-.9.2-3.2 3.3-3.2 2.8 0 3.2 1.9 3.3 2.9 0 .2-.1.3-.3.4l-1.5.3c-.3.1-.5-.1-.5-.4-.1-.6-.3-.9-1-.9-1 0-1 .6-1 1.6v1.9c0 1 .1 1.6 1 1.6.7 0 .9-.3 1-.9 0-.3.3-.4.5-.4l1.5.3c.2 0 .3.2.3.4-.1 1-.5 2.9-3.3 2.9-3.1 0-3.3-2.3-3.3-3.2v-3.3zM315.9 146c.3 0 .4.1.4.4v1.5c0 .2-.1.4-.4.4h-3.2c-.3 0-.4.1-.4.4v.4c0 .2.1.4.4.4h2c.3 0 .4.1.4.4v1.5c0 .3-.1.4-.4.4h-2c-.3 0-.4.1-.4.4v.4c0 .3.1.4.4.4h3.2c.3 0 .4.1.4.4v1.5c0 .3-.1.4-.4.4h-5.5c-.2 0-.4-.1-.4-.4v-8.4c0-.3.1-.4.4-.4h5.5zM321.1 148.9c0-.9.2-3.2 3.3-3.2 2.8 0 3.2 1.9 3.3 2.9 0 .2-.1.3-.3.4l-1.5.3c-.3.1-.5-.1-.5-.4-.1-.6-.3-.9-1-.9-1 0-1 .6-1 1.6v1.9c0 1 .1 1.6 1 1.6.7 0 .9-.3 1-.9 0-.3.3-.4.5-.4l1.5.3c.2 0 .3.2.3.4-.1 1-.5 2.9-3.3 2.9-3.1 0-3.3-2.3-3.3-3.2v-3.3zM334.5 146c.3 0 .4.1.4.4v1.5c0 .2-.1.4-.4.4h-3.2c-.3 0-.4.1-.4.4v.4c0 .2.1.4.4.4h2c.3 0 .4.1.4.4v1.5c0 .3-.1.4-.4.4h-2c-.3 0-.4.1-.4.4v.4c0 .3.1.4.4.4h3.2c.3 0 .4.1.4.4v1.5c0 .3-.1.4-.4.4H329c-.2 0-.4-.1-.4-.4v-8.4c0-.3.1-.4.4-.4h5.5zM338.2 146c.2 0 .4.1.5.3l1.8 4.4c.1.1.2.1.2 0v-4.2c0-.3.1-.4.4-.4h1.5c.3 0 .4.1.4.4v8.4c0 .2-.1.4-.4.4h-1.9c-.2 0-.4-.1-.5-.3l-1.8-4.4c-.1-.1-.2-.1-.2 0v4.2c0 .2-.1.4-.4.4h-1.5c-.2 0-.4-.1-.4-.4v-8.4c0-.3.1-.4.4-.4h1.9zM346.3 148.6c0-.3-.1-.4-.4-.4h-1.8c-.2 0-.4-.1-.4-.4v-1.5c0-.3.1-.4.4-.4h6.7c.3 0 .4.1.4.4v1.5c0 .2-.1.4-.4.4H349c-.2 0-.4.1-.4.4v6.1c0 .2-.1.4-.4.4h-1.5c-.3 0-.4-.1-.4-.4v-6.1zM358.9 154.5c.2.3 0 .7-.4.7H357c-.1 0-.2-.1-.3-.2l-1.4-2.6-.1-.1h-.5c-.2 0-.4.2-.4.4v2.1c0 .2-.2.4-.4.4h-1.5c-.2 0-.4-.2-.4-.4v-8.4c0-.2.2-.4.4-.4h2.9c2.3 0 3.3 1 3.3 3.2 0 1.2-.3 2.1-1 2.6-.1 0-.1.1 0 .2l1.3 2.5zm-4.2-6.2c-.2 0-.4.2-.4.4v1c0 .2.2.4.4.4h.7c.6 0 .9-.1.9-.9s-.3-.9-.9-.9h-.7zM365.7 146c.3 0 .4.1.4.4v1.5c0 .2-.1.4-.4.4h-3.2c-.3 0-.4.1-.4.4v.4c0 .2.1.4.4.4h2c.3 0 .4.1.4.4v1.5c0 .3-.1.4-.4.4h-2c-.3 0-.4.1-.4.4v.4c0 .3.1.4.4.4h3.2c.3 0 .4.1.4.4v1.5c0 .3-.1.4-.4.4h-5.5c-.3 0-.4-.1-.4-.4v-8.4c0-.3.1-.4.4-.4h5.5z"/><g><path d="M32.1 153H156v7H32.1z"/><path d="M47.1 135.6h7v20.9h-7zM90.6 135.6h7v20.9h-7zM134.1 135.6h7v20.9h-7z"/></g><g><path d="M414.4 153h123.9v7H414.4z"/><path d="M429.3 135.6h7v20.9h-7zM472.9 135.6h7v20.9h-7zM516.4 135.6h7v20.9h-7z"/></g><g><path fill="#1C5379" d="M188.3 182h193.4v72.7H188.3z"/><path d="M381.7 258.3H188.3c-1.9 0-3.5-1.6-3.5-3.5V182c0-1.9 1.6-3.5 3.5-3.5h193.4c1.9 0 3.5 1.6 3.5 3.5v72.8c0 1.9-1.6 3.5-3.5 3.5zm-189.9-7h186.4v-65.8H191.8v65.8z"/></g><g><path fill="#1C5379" d="M234 182h101.9v72.7H234z"/><path d="M335.9 258.3H234c-1.9 0-3.5-1.6-3.5-3.5V182c0-1.9 1.6-3.5 3.5-3.5h101.9c1.9 0 3.5 1.6 3.5 3.5v72.8c0 1.9-1.6 3.5-3.5 3.5zm-98.4-7h94.9v-65.8h-94.9v65.8z"/></g><g><path fill="#1C5379" d="M82.4 182h79.2v72.7H82.4z"/><path d="M161.6 258.3H82.4c-1.9 0-3.5-1.6-3.5-3.5V182c0-1.9 1.6-3.5 3.5-3.5h79.2c1.9 0 3.5 1.6 3.5 3.5v72.8c0 1.9-1.5 3.5-3.5 3.5zm-75.7-7h72.2v-65.8H85.9v65.8z"/></g><g><path fill="#1C5379" d="M407.7 182h79.2v72.7h-79.2z"/><path d="M486.9 258.3h-79.2c-1.9 0-3.5-1.6-3.5-3.5V182c0-1.9 1.6-3.5 3.5-3.5h79.2c1.9 0 3.5 1.6 3.5 3.5v72.8c0 1.9-1.5 3.5-3.5 3.5zm-75.7-7h72.2v-65.8h-72.2v65.8z"/></g><g><path fill="#6D6E71" d="M20.9 135.6h11.2v119.1H20.9z"/><path d="M32.1 258.3H20.9c-1.9 0-3.5-1.6-3.5-3.5V135.6c0-1.9 1.6-3.5 3.5-3.5h11.2c1.9 0 3.5 1.6 3.5 3.5v119.1c0 2-1.5 3.6-3.5 3.6zm-7.7-7h4.2V139.1h-4.2v112.2z"/><path fill="#6D6E71" d="M156 135.6h11.2v119.1H156z"/><path d="M167.2 258.3H156c-1.9 0-3.5-1.6-3.5-3.5V135.6c0-1.9 1.6-3.5 3.5-3.5h11.2c1.9 0 3.5 1.6 3.5 3.5v119.1c0 2-1.5 3.6-3.5 3.6zm-7.7-7h4.2V139.1h-4.2v112.2z"/><g><path fill="#6D6E71" d="M403.2 135.6h11.2v119.1h-11.2z"/><path d="M414.4 258.3h-11.2c-1.9 0-3.5-1.6-3.5-3.5V135.6c0-1.9 1.6-3.5 3.5-3.5h11.2c1.9 0 3.5 1.6 3.5 3.5v119.1c0 2-1.5 3.6-3.5 3.6zm-7.7-7h4.2V139.1h-4.2v112.2z"/></g><g><path fill="#6D6E71" d="M538.3 135.6h11.2v119.1h-11.2z"/><path d="M549.5 258.3h-11.2c-1.9 0-3.5-1.6-3.5-3.5V135.6c0-1.9 1.6-3.5 3.5-3.5h11.2c1.9 0 3.5 1.6 3.5 3.5v119.1c0 2-1.6 3.6-3.5 3.6zm-7.7-7h4.2V139.1h-4.2v112.2z"/></g></g><g><path fill="#58595B" d="M278.9 182h11.8v72.7h-11.8z"/><path d="M290.7 258.3h-11.8c-1.9 0-3.5-1.6-3.5-3.5V182c0-1.9 1.6-3.5 3.5-3.5h11.8c1.9 0 3.5 1.6 3.5 3.5v72.8c0 1.9-1.6 3.5-3.5 3.5zm-8.3-7h4.8v-65.8h-4.8v65.8z"/></g><g><path d="M234 213.3h101.9v7H234z"/></g><g><path fill="#58595B" d="M109.5 119.4h9.9v135.4h-9.9z"/><path d="M119.4 258.3h-9.9c-1.9 0-3.5-1.6-3.5-3.5V119.4c0-1.9 1.6-3.5 3.5-3.5h9.9c1.9 0 3.5 1.6 3.5 3.5v135.4c0 1.9-1.6 3.5-3.5 3.5zm-6.4-7h2.9V122.9H113v128.4z"/><circle cx="105.1" cy="119.4" r="9.3" fill="#EFC94C"/><path d="M105.1 132.2c-7 0-12.8-5.7-12.8-12.8s5.7-12.8 12.8-12.8c7 0 12.8 5.7 12.8 12.8s-5.7 12.8-12.8 12.8zm0-18.6c-3.2 0-5.8 2.6-5.8 5.8s2.6 5.8 5.8 5.8c3.2 0 5.8-2.6 5.8-5.8s-2.6-5.8-5.8-5.8z"/><g><circle cx="123.7" cy="119.4" r="9.3" fill="#EFC94C"/><path d="M123.7 132.2c-7 0-12.8-5.7-12.8-12.8s5.7-12.8 12.8-12.8 12.8 5.7 12.8 12.8-5.7 12.8-12.8 12.8zm0-18.6c-3.2 0-5.8 2.6-5.8 5.8s2.6 5.8 5.8 5.8 5.8-2.6 5.8-5.8-2.6-5.8-5.8-5.8z"/></g><g><circle cx="114.4" cy="102.6" r="9.3" fill="#EFC94C"/><path d="M114.4 115.4c-7 0-12.8-5.7-12.8-12.8 0-7 5.7-12.8 12.8-12.8 7 0 12.8 5.7 12.8 12.8 0 7-5.7 12.8-12.8 12.8zm0-18.6c-3.2 0-5.8 2.6-5.8 5.8 0 3.2 2.6 5.8 5.8 5.8 3.2 0 5.8-2.6 5.8-5.8 0-3.2-2.6-5.8-5.8-5.8z"/></g><g><path fill="#58595B" d="M450.6 119.4h9.9v135.4h-9.9z"/><path d="M460.5 258.3h-9.9c-1.9 0-3.5-1.6-3.5-3.5V119.4c0-1.9 1.6-3.5 3.5-3.5h9.9c1.9 0 3.5 1.6 3.5 3.5v135.4c0 1.9-1.5 3.5-3.5 3.5zm-6.4-7h2.9V122.9h-2.9v128.4z"/><circle cx="446.3" cy="119.4" r="9.3" fill="#EFC94C"/><path d="M446.3 132.2c-7 0-12.8-5.7-12.8-12.8s5.7-12.8 12.8-12.8c7 0 12.8 5.7 12.8 12.8s-5.8 12.8-12.8 12.8zm0-18.6c-3.2 0-5.8 2.6-5.8 5.8s2.6 5.8 5.8 5.8c3.2 0 5.8-2.6 5.8-5.8s-2.6-5.8-5.8-5.8z"/><g><circle cx="464.9" cy="119.4" r="9.3" fill="#EFC94C"/><path d="M464.9 132.2c-7 0-12.8-5.7-12.8-12.8s5.7-12.8 12.8-12.8 12.8 5.7 12.8 12.8-5.8 12.8-12.8 12.8zm0-18.6c-3.2 0-5.8 2.6-5.8 5.8s2.6 5.8 5.8 5.8 5.8-2.6 5.8-5.8-2.6-5.8-5.8-5.8z"/></g><g><circle cx="455.6" cy="102.6" r="9.3" fill="#EFC94C"/><path d="M455.6 115.4c-7 0-12.8-5.7-12.8-12.8 0-7 5.7-12.8 12.8-12.8 7 0 12.8 5.7 12.8 12.8 0 7-5.8 12.8-12.8 12.8zm0-18.6c-3.2 0-5.8 2.6-5.8 5.8 0 3.2 2.6 5.8 5.8 5.8 3.2 0 5.8-2.6 5.8-5.8 0-3.2-2.6-5.8-5.8-5.8z"/></g></g></g></svg>